<?xml version="1.0" encoding="utf-8"?>
<!-- Generator: Adobe Illustrator 18.0.0, SVG Export Plug-In . SVG Version: 6.00 Build 0)  -->
<!DOCTYPE svg PUBLIC "-//W3C//DTD SVG 1.1//EN" "http://www.w3.org/Graphics/SVG/1.1/DTD/svg11.dtd">
<svg version="1.1" id="Layer_1" xmlns="http://www.w3.org/2000/svg" xmlns:xlink="http://www.w3.org/1999/xlink" x="0px" y="0px"
	 viewBox="0 254.3 221 284" enable-background="new 0 254.3 221 284" xml:space="preserve">
<g>
	<g>
		<path fill="#231F20" d="M-3918.8-2218.3c-8.6-48.6-34.6-134.4,13.3-167.6c14-10,39.2-6,32.6,15.3c-8,23.9-33.9,32.6-27.3,64.5
			c11.3,56.5,37.3,104.4,42.6,161.6c5.3,57.2-6.7,112.4-12,169.6c-5.3,58.5-2,123.7,8,181.6c10,58.5,23.9,105.8,36.6,164.3
			c4,18.6,2,34.6-4.7,47.9c-12,24.6-22.6,18.6-17.3,0c9.3-33.3-0.7-59.9-10.6-59.9c-10.6,0-18,45.2-18.6,49.9
			c-4,27.9,12,53.9,20,79.2c9.3,29.3,12.6,67.2,11.3,98.5c-1.3,43.2-0.7,101.8,38.6,133c20,16,6.7,34.6-10.6,38.6
			c-18.6,4.7-74.5,8.6-90.5-11.3c-6-7.3-7.3-11.3-4.7-22.6c22.6-87.1,23.9-120.4,14.6-180.3c-4.7-30.6-15.3-59.2-20.6-89.8
			c-6.7-38.6,5.3-72.5,17.3-109.1c21.3-66.5,12-145.7-12.6-209.5c-23.3-60.5-35.3-105.1-39.2-139.7c-6-50.6-0.7-73.8,2.7-93.8
			c3.3-20,33.3-33.9,25.3,1.3c-5.3,23.9-2.7,95.1,17.3,85.8c12-5.3,17.3-21.3,17.3-55.2c0-33.3-8-60.5-12-80.5
			C-3906.2-2167.1-3917.5-2208.3-3918.8-2218.3z"/>
		<path fill="#231F20" d="M-4072.5-1245.8c-1.3-32.6,35.3-31.3,50.6-33.9c45.2-7.3,33.3-94.5,30.6-125.1
			c-4.7-59.2-25.3-141.7-17.3-200.9c8-57.2,20.6-93.1,23.3-151c2.7-59.9-18-125.1-34.6-181.6c-16.6-57.9-18-110.4-6-167
			c8.6-40.6,30.6-118.4,15.3-157c-10-23.3-26.6,9.3-42.6,10.6c-18.6,1.3-55.9-25.9-31.3-42.6c14.6-10,34.6-0.7,51.9-7.3
			c21.3-9.3,47.9-42.6,66.5-11.3c22,36.6-20.6,147.7-26.6,187.6c-11.3,71.8-11.3,113.1,2,164.3c14.6,57.2,39.9,95.8,53.2,145.7
			c15.3,57.9,16.6,87.1,4.7,146.3c-13.3,61.9-39.2,99.1-20,165c25.9,90.5,80.5,257.4-68.5,266.1
			C-4034.5-1237.8-4071.8-1235.1-4072.5-1245.8z"/>
		<g>
			<path fill="#231F20" d="M-3758.5-1891c-39.9,22.6-8.6-145-7.3-159.7c4.7-57.9-12.6-111.1-27.9-166.3
				c-10.6-39.2-11.3-74.5-2.7-115.1c4-18,16-55.9,5.3-73.2c-15.3-24.6-45.2,14-49.2,27.3c-12,39.2-14.6,89.8-3.3,129.1
				c21.3,72.5,46.6,109.1,36.6,187.6c-8,59.9-44.6,113.1-25.9,173.6c9.3,29.3,22,55.9,13.3,88.5c-9.3,31.9,0.7,89.8,8,121.1
				c17.3,71.8,33.9,106.4,14,180.3c-17.3,63.9-30.6,132.4,8.6,192.9c4.7,6.7,24.6,35.3,46.6,51.9c27.3,21.3,58.5,17.3,59.9,8.6
				c7.3-45.9-36.6-42.6-59.9-75.2c-16-22.6-22-51.9-27.3-78.5c-9.3-51.9,8.6-117.1,21.3-167.6c16-62.5-12-125.1-7.3-188.3
				c3.3-44.6,26.6-82.5,60.5-102.4c17.3-10,45.2-14.6,81.2-14.6c53.2,0,100.4,35.3,100.4,116.4v375.8c0,61.9-35.3,85.8-83.8,85.8
				v53.2h379.2v-53.2c-61.9-2.7-85.8-26.6-85.8-91.1v-420.4c0-131-81.2-208.2-204.9-208.2c-113.1,0-187.6,57.9-243.5,119.1
				L-3758.5-1891z"/>
		</g>
	</g>
	<g>
		<path fill="#231F20" d="M-3091.3-1956.2c25.9,2.7,29.9,11.3,29.9,29.3v224.2c0,23.3-6.7,26.6-28.6,27.3c-2,0-4,2-4,4v15.3
			c0,2.7,2,4,4,4h107.8c2.7,0,4-2,4-4v-15.3c0-2.7-2-4-4-4c-22-0.7-28.6-4.7-28.6-27.3v-105.8c17.3-29.3,35.3-41.9,57.9-41.9
			c30.6,0,36.6,26.6,36.6,48.6v98.5c0,23.3-6.7,26.6-28.6,27.3c-2,0-4,2-4,4v15.3c0,2.7,2,4,4,4h107.8c2.7,0,4-2,4-4v-15.3
			c0-2.7-2-4-4-4c-22-0.7-28.6-4.7-28.6-27.3v-111.8c0-45.9-27.9-75.8-70.5-75.8c-29.9,0-52.6,12-77.2,41.2v-114.4
			c0-6.7,0.7-12,1.3-16.6c0.7-3.3,0.7-6.7,0.7-9.3c0-1.3-0.7-2.7-2-3.3s-2.7-1.3-4-0.7c-8,2-36.6,10-75.8,16c-2,0-4,2-4,4v12.6
			C-3095.3-1958.2-3093.9-1956.9-3091.3-1956.2z"/>
		<path fill="#231F20" d="M-2816.5-1849.8c22,0.7,28.6,7.3,28.6,29.9v98.5c0,45.9,28.6,77.2,70.5,77.2c29.9,0,51.9-12.6,74.5-43.2
			l-0.7,39.2c0,1.3,0.7,2.7,2,3.3c0.7,0.7,1.3,0.7,2.7,0.7c0.7,0,1.3,0,1.3,0c27.3-10.6,55.2-15.3,69.8-16.6c2,0,4-2,4-4v-15.3
			c0-2-2-4-4-4c-18.6-0.7-26.6-4-26.6-29.9v-126.4c0-7.3,0.7-14.6,0.7-22c0.7-7.3,0.7-14.6,0.7-22.6c0-1.3-0.7-2.7-2-3.3
			c-1.3-0.7-2.7-1.3-4-0.7l-77.2,19.3c-2,0.7-3.3,2-3.3,4v12.6c0,2.7,2,4,4,4c22,0.7,28.6,7.3,28.6,29.9v91.8
			c-14,29.3-31.3,42.6-54.5,42.6c-31.9,0-36.6-31.3-36.6-49.9v-109.1c0-6.7,0.7-14,0.7-20.6c0.7-6.7,0.7-14,0.7-21.3
			c0-1.3-0.7-2.7-2-3.3c-1.3-0.7-2.7-1.3-4-0.7l-77.2,19.3c-2,0.7-3.3,2-3.3,4v12.6C-2820.5-1851.8-2818.5-1849.8-2816.5-1849.8z"/>
		<path fill="#231F20" d="M-2442.7-1646.9c24.6,0,50.6-14,65.9-35.3l-0.7,31.3c0,1.3,0.7,2.7,2,3.3c0.7,0.7,2,0.7,2.7,0.7
			s0.7,0,1.3,0c22.6-6.7,44.6-11.3,68.5-14.6c2,0,4-2,4-4v-15.3c0-2.7-2-4-4-4c-20,0-25.3-2.7-25.3-23.3v-254.8c0-4,0-9.3,0.7-13.3
			c0-4,0.7-8.6,0.7-12c0-1.3-0.7-2.7-2-3.3c-1.3-0.7-2.7-1.3-4-0.7c-10,2.7-36.6,10-78.5,16c-2,0-4,2-4,4v12.6c0,2,2,4,4,4
			c22.6,1.3,31.9,6.7,31.9,32.6v49.2c-15.3-10-33.3-16-51.2-16c-55.2,0-114.4,43.2-114.4,123.1
			C-2546.5-1709.4-2506.5-1646.9-2442.7-1646.9z M-2432-1686.1c-41.9,0-56.5-48.6-56.5-89.8c0-49.9,24.6-84.5,59.2-84.5
			c20.6,0,37.3,12,48.6,33.9v101.8C-2391.5-1705.4-2404.8-1686.1-2432-1686.1z"/>
		<path fill="#231F20" d="M-2270.4-1646.2h14c2,0,3.3-1.3,4-2.7c2.7-8.6,6.7-12.6,11.3-12.6c4,0,8.6,2,14.6,5.3
			c10.6,5.3,25.9,12,47.9,12c61.2,0,83.2-43.9,83.2-73.8c0-49.9-45.2-65.2-81.2-77.8c-27.3-9.3-51.2-18-51.2-37.3
			c0-26.6,29.3-28.6,37.9-28.6c29.9,0,48.6,15.3,59.9,48.6c0.7,2,2,2.7,4,2.7h14.6c2.7,0,4-2,4-4v-70.5c0-2.7-2-4-4-4h-14
			c-1.3,0-3.3,0.7-4,2c-4.7,8.6-6.7,9.3-8.6,9.3c-2.7,0-6.7-1.3-12-3.3c-10-4-23.3-9.3-44.6-9.3c-37.9,0-78.5,21.3-78.5,69.2
			c0,50.6,41.2,63.2,77.2,74.5c27.9,8.6,52.6,16.6,52.6,39.2c0,22-19.3,33.9-37.9,33.9c-35.3,0-58.5-18.6-72.5-59.2
			c-0.7-2-2-2.7-4-2.7h-13.3c-2.7,0-4,2-4,4v80.5C-2275-1648.2-2273-1646.2-2270.4-1646.2z"/>
		<path fill="#231F20" d="M-1829.3-1767.3c0-60.5-43.9-123.1-117.1-123.1s-117.1,62.5-117.1,123.1s43.9,123.1,117.1,123.1
			S-1829.3-1706.8-1829.3-1767.3z M-1946.4-1673.5c-37.3,0-59.9-35.9-59.9-93.8s23.3-93.8,59.9-93.8c37.3,0,59.9,35.9,59.9,93.8
			S-1909.8-1673.5-1946.4-1673.5z"/>
		<path fill="#231F20" d="M-1548.6-1675.5c-22-0.7-28.6-4.7-28.6-27.3v-111.8c0-45.9-27.9-75.8-70.5-75.8c-29.9,0-52.6,12-78.5,43.2
			l0.7-38.6c0-1.3-0.7-2.7-2-3.3c-1.3-0.7-2.7-1.3-4-0.7c-23.3,8.6-50.6,16-71.8,19.3c-2,0.7-3.3,2-3.3,4v12.6c0,2.7,2,4,4,4
			c20,0,27.9,8.6,27.9,28.6v118.4c0,23.3-6.7,26.6-28.6,27.3c-2,0-4,2-4,4v15.3c0,2.7,2,4,4,4h107.8c2.7,0,4-2,4-4v-15.3
			c0-2.7-2-4-4-4c-22-0.7-28.6-4.7-28.6-27.3v-105.8c17.3-29.3,35.3-41.9,57.9-41.9c30.6,0,36.6,26.6,36.6,48.6v98.5
			c0,23.3-6.7,26.6-28.6,27.3c-2,0-4,2-4,4v15.3c0,2.7,2,4,4,4h107.8c2.7,0,4-2,4-4v-15.3
			C-1544.6-1673.5-1546.6-1675.5-1548.6-1675.5z"/>
		<path fill="#231F20" d="M-2732-1477.9h-85.8c-2.7,0-4,2-4,4v15.3c0,2.7,2,4,4,4c9.3,0,24.6,2,24.6,15.3c0,7.3-4,17.3-6.7,24.6
			l-39.2,96.5l-41.9-106.4l-0.7-2c-2-5.3-3.3-10-3.3-15.3c0-3.3,0-12,22-12.6c2,0,4-2,4-4v-15.3c0-2.7-2-4-4-4h-107.1
			c-2.7,0-4,2-4,4v15.3c0,2.7,2,4,4,4c18.6,0.7,27.9,4,37.9,34.6l-42.6,101.8l-43.2-109.8c-2-4.7-4-10-4-16c0-2.7,0-10.6,20.6-10.6
			c2.7,0,4-2,4-4v-15.3c0-2.7-2-4-4-4h-99.1c-2.7,0-4,2-4,4v15.3c0,2,1.3,4,4,4c12.6,1.3,19.3,2.7,28.6,25.9l75.2,183.6
			c0.7,1.3,2,2.7,4,2.7h15.3c2,0,3.3-1.3,4-2.7l57.9-135.7l55.2,135.7c0.7,1.3,2,2.7,4,2.7h14.6c2,0,3.3-1.3,4-2.7l79.2-180.9
			c12-27.9,15.3-28.6,28.6-28.6c2.7,0,4-2,4-4v-15.3C-2727.4-1475.9-2729.4-1477.9-2732-1477.9z"/>
		<path fill="#231F20" d="M-2604.3-1484.6c-73.2,0-117.1,62.5-117.1,123.1s43.9,123.1,117.1,123.1c73.2,0,117.1-62.5,117.1-123.1
			S-2531.2-1484.6-2604.3-1484.6z M-2604.3-1267.7c-37.3,0-59.9-35.9-59.9-93.8c0-57.9,23.3-93.8,59.9-93.8
			c37.3,0,59.9,35.9,59.9,93.8C-2544.5-1303.6-2567.7-1267.7-2604.3-1267.7z"/>
		<path fill="#231F20" d="M-2342.2-1484.6c-73.2,0-117.1,62.5-117.1,123.1s43.9,123.1,117.1,123.1s117.1-62.5,117.1-123.1
			S-2269.1-1484.6-2342.2-1484.6z M-2342.2-1267.7c-37.3,0-59.9-35.9-59.9-93.8c0-57.9,23.3-93.8,59.9-93.8
			c37.3,0,59.9,35.9,59.9,93.8C-2282.4-1303.6-2305.6-1267.7-2342.2-1267.7z"/>
		<path fill="#231F20" d="M-1953.7-1280.3c-20,0-25.3-2.7-25.3-23.3v-254.8c0-4,0-9.3,0.7-13.3c0-4,0.7-8.6,0.7-12
			c0-1.3-0.7-2.7-2-3.3c-1.3-0.7-2.7-1.3-4-0.7c-10,2.7-36.6,10-78.5,16c-2,0-4,2-4,4v12.6c0,2,2,4,4,4c22.6,1.3,31.9,6.7,31.9,32.6
			v49.2c-15.3-10-33.3-16-51.2-16c-55.2,0-114.4,43.2-114.4,123.1c0,57.9,39.9,120.4,103.8,120.4c24.6,0,50.6-14,65.9-35.3
			l-0.7,31.3c0,1.3,0.7,2.7,2,3.3c0.7,0.7,2,0.7,2.7,0.7s0.7,0,1.3,0c22.6-6.7,44.6-11.3,68.5-14.6c2,0,4-2,4-4v-15.3
			C-1949.8-1278.4-1951.7-1280.3-1953.7-1280.3z M-2082.1-1280.3c-41.9,0-56.5-48.6-56.5-89.8c0-49.9,24.6-84.5,59.2-84.5
			c20.6,0,37.3,12,48.6,33.9v101.8C-2041.6-1299.6-2054.9-1280.3-2082.1-1280.3z"/>
		<path fill="#231F20" d="M-1826-1390.8c-27.3-9.3-51.2-18-51.2-36.6c0-26.6,29.3-28.6,37.9-28.6c29.9,0,48.6,15.3,59.9,48.6
			c0.7,2,2,2.7,4,2.7h14.6c2.7,0,4-2,4-4v-70.5c0-2.7-2-4-4-4h-14c-1.3,0-3.3,0.7-4,2c-4.7,8.6-6.7,9.3-8.6,9.3
			c-2.7,0-6.7-1.3-12-3.3c-10-4-23.3-9.3-44.6-9.3c-37.9,0-78.5,21.3-78.5,69.2c0,50.6,41.2,63.2,77.2,74.5
			c27.9,8.6,52.6,16.6,52.6,39.2c0,22-19.3,33.9-37.9,33.9c-35.3,0-58.5-18.6-72.5-59.2c-0.7-2-2-2.7-4-2.7h-13.3c-2.7,0-4,2-4,4
			v80.5c0,2.7,2,4,4,4h14c2,0,3.3-1.3,4-2.7c2.7-8.6,6.7-12.6,11.3-12.6c4,0,8.6,2,14.6,5.3c10.6,5.3,25.9,12,47.9,12
			c61.2,0,83.2-43.9,83.2-73.8C-1744.9-1362.2-1790.1-1378.1-1826-1390.8z"/>
	</g>
</g>
<g>
	<g>
		<path fill="#231F20" d="M-3155.8-70.3c-2-12-8.6-31.9,3.3-40.6c3.3-2,9.3-1.3,8,3.3c-2,6-8,8-6.7,15.3c2.7,13.3,8.6,25.3,10,38.6
			c1.3,14-1.3,27.3-2.7,40.6c-1.3,14-0.7,29.9,2,43.9c2.7,14,6,25.3,8.6,39.2c0.7,4.7,0.7,8-1.3,11.3c-2.7,6-5.3,4.7-4,0
			c2-8,0-14.6-2.7-14.6c-2.7,0-4,10.6-4.7,12c-0.7,6.7,2.7,12.6,4.7,19.3s3.3,16,2.7,23.3c0,10.6,0,24.6,9.3,31.9
			c4.7,4,1.3,8-2.7,9.3c-4.7,1.3-18,2-22-2.7c-1.3-2-2-2.7-1.3-5.3c5.3-20.6,6-28.6,3.3-43.2c-1.3-7.3-4-14-4.7-21.3
			c-1.3-9.3,1.3-17.3,4-25.9c5.3-16,2.7-35.3-2.7-50.6c-5.3-14.6-8.6-25.3-9.3-33.3c-1.3-12,0-18,0.7-22.6s8-8,6,0
			c-1.3,6-0.7,22.6,4,20.6c2.7-1.3,4-5.3,4-13.3s-2-14.6-2.7-19.3C-3152.5-57.7-3155.1-67.7-3155.8-70.3z"/>
		<path fill="#231F20" d="M-3192.4,163.8c-0.7-8,8.6-7.3,12-8c10.6-2,8-22.6,7.3-29.9c-1.3-14-6-33.9-4-47.9s4.7-22.6,5.3-36.6
			c0.7-14.6-4.7-29.9-8.6-43.9s-4.7-26.6-1.3-39.9c2-10,7.3-28.6,3.3-37.9c-2-5.3-6.7,2-10,2.7c-4.7,0-13.3-6-7.3-10
			c3.3-2.7,8.6,0,12.6-2c5.3-2,11.3-10,16-2.7c5.3,8.6-4.7,35.3-6.7,45.2c-2.7,17.3-2.7,27.3,0.7,39.2c3.3,14,9.3,23.3,12.6,34.6
			c4,14,4,21.3,1.3,35.3c-3.3,14.6-9.3,23.9-4.7,39.9c6,22,19.3,61.9-16.6,63.9C-3183.7,165.2-3192.4,165.8-3192.4,163.8z"/>
		<g>
			<path fill="#231F20" d="M-3117.2,8.8c-9.3,5.3-2-34.6-2-38.6c1.3-14-3.3-26.6-6.7-39.9c-2.7-9.3-2.7-18-0.7-27.9
				c0.7-4,4-13.3,1.3-17.3c-4-6-10.6,3.3-12,6.7c-2.7,9.3-3.3,21.3-0.7,30.6c5.3,17.3,11.3,25.9,8.6,45.2c-2,14.6-10.6,27.3-6,41.9
				c2,7.3,5.3,13.3,3.3,21.3s0,21.3,2,29.3c4,17.3,8,25.3,3.3,43.2c-4,15.3-7.3,31.9,2,46.6c1.3,1.3,6,8.6,11.3,12.6
				c6.7,5.3,14,4,14.6,2c2-10.6-8.6-10-14.6-18c-4-5.3-5.3-12.6-6.7-18.6c-2-12.6,2-27.9,5.3-39.9c4-15.3-2.7-29.9-2-45.2
				c0.7-10.6,6.7-20,14.6-24.6c4-2.7,10.6-3.3,19.3-3.3c12.6,0,23.9,8.6,23.9,27.9v90.5c0,14.6-8.6,20.6-20,20.6v12.6h91.1v-12.6
				c-14.6-0.7-20.6-6.7-20.6-22V28.8c0-31.3-19.3-49.9-49.2-49.9c-27.3,0-45.2,14-58.5,28.6L-3117.2,8.8z"/>
		</g>
	</g>
	<g>
		<path fill="#231F20" d="M-2956.9-7.1c6,0.7,7.3,2.7,7.3,7.3v53.9c0,5.3-1.3,6.7-6.7,6.7c-0.7,0-0.7,0.7-0.7,1.3v3.3
			c0,0.7,0.7,1.3,1.3,1.3h25.9c0.7,0,1.3-0.7,1.3-1.3v-3.3c0-0.7-0.7-1.3-0.7-1.3c-5.3,0-6.7-1.3-6.7-6.7V28.8c4-7.3,8.6-10,14-10
			c7.3,0,8.6,6.7,8.6,12v23.3c0,5.3-1.3,6.7-6.7,6.7c-0.7,0-0.7,0.7-0.7,1.3v3.3c0,0.7,0.7,1.3,1.3,1.3h25.9c0.7,0,1.3-0.7,1.3-1.3
			v-3.3c0-0.7-0.7-1.3-0.7-1.3c-5.3,0-6.7-1.3-6.7-6.7V27.5c0-11.3-6.7-18-17.3-18c-7.3,0-12.6,2.7-18.6,10V-7.8c0-1.3,0-2.7,0-4
			c0-0.7,0-1.3,0-2c0,0,0-0.7-0.7-0.7h-0.7c-2,0.7-8.6,2.7-18,4c-0.7,0-0.7,0.7-0.7,1.3v2.7C-2958.2-7.8-2957.6-7.1-2956.9-7.1z"/>
		<path fill="#231F20" d="M-2891,18.2c5.3,0,6.7,2,6.7,7.3v23.3c0,11.3,6.7,18.6,17.3,18.6c7.3,0,12.6-3.3,18-10.6v9.3
			c0,0.7,0,0.7,0.7,0.7h0.7c0,0,0,0,0.7,0c6.7-2.7,13.3-3.3,16.6-4c0.7,0,0.7-0.7,0.7-1.3v-3.3c0-0.7-0.7-1.3-0.7-1.3
			c-4.7,0-6.7-0.7-6.7-7.3V18.8c0-2,0-3.3,0-5.3s0-3.3,0-5.3c0,0,0-0.7-0.7-0.7h-0.7l-18.6,4.7c-0.7,0-0.7,0.7-0.7,1.3v2.7
			c0,0.7,0.7,1.3,1.3,1.3c5.3,0,6.7,2,6.7,7.3v22c-3.3,7.3-7.3,10-13.3,10c-8,0-8.6-7.3-8.6-12V18.8c0-1.3,0-3.3,0-4.7
			c0-2,0-3.3,0-5.3c0,0,0-0.7-0.7-0.7h-0.7l-18.6,4.7c-0.7,0-0.7,0.7-0.7,1.3v2.7C-2891.7,18.2-2891.7,18.2-2891,18.2z"/>
		<path fill="#231F20" d="M-2801.2,67.4c6,0,12-3.3,16-8.6v7.3c0,0,0,0.7,0.7,0.7h0.7l0,0c5.3-1.3,10.6-2.7,16.6-3.3
			c0.7,0,0.7-0.7,0.7-1.3v-3.3c0-0.7-0.7-1.3-1.3-1.3c-4.7,0-6-0.7-6-5.3V-9.1c0-1.3,0-2,0-3.3s0-2,0-2.7c0,0,0-0.7-0.7-0.7h-0.7
			c-2.7,0.7-8.6,2.7-18.6,4c-0.7,0-0.7,0.7-0.7,1.3v2.7c0,0.7,0.7,1.3,0.7,1.3c5.3,0.7,7.3,1.3,7.3,8v12c-3.3-2.7-8-4-12.6-4
			c-13.3,0-27.3,10.6-27.3,29.3C-2825.8,52.1-2816.5,67.4-2801.2,67.4z M-2798.6,58.1c-10,0-13.3-12-13.3-21.3c0-12,6-20.6,14-20.6
			c4.7,0,8.6,2.7,12,8v24.6C-2789.3,53.4-2791.9,58.1-2798.6,58.1z"/>
		<path fill="#231F20" d="M-2760,67.4h3.3c0.7,0,0.7,0,0.7-0.7c0.7-2,1.3-3.3,2.7-3.3c0.7,0,2,0.7,3.3,1.3c2.7,1.3,6,2.7,11.3,2.7
			c14.6,0,20-10.6,20-18c0-12-10.6-16-19.3-18.6c-6.7-2-12.6-4-12.6-8.6c0-6.7,7.3-6.7,9.3-6.7c7.3,0,12,3.3,14.6,12
			c0,0.7,0.7,0.7,0.7,0.7h3.3c0.7,0,1.3-0.7,1.3-1.3V10.2c0-0.7-0.7-1.3-1.3-1.3h-3.3c-0.7,0-0.7,0-0.7,0.7c-1.3,2-1.3,2-2,2
			c-0.7,0-1.3-0.7-2.7-0.7c-2.7-0.7-6-2-10.6-2c-9.3,0-18.6,5.3-18.6,16.6c0,12,10,15.3,18.6,18c6.7,2,12.6,4,12.6,9.3s-4.7,8-9.3,8
			c-8.6,0-14-4.7-17.3-14c0-0.7-0.7-0.7-0.7-0.7h-3.3c-0.7,0-1.3,0.7-1.3,1.3v19.3C-2760.7,66.7-2760.7,67.4-2760,67.4z"/>
		<path fill="#231F20" d="M-2654.2,38.1c0-14.6-10.6-29.3-27.9-29.3c-17.3,0-27.9,15.3-27.9,29.3c0,14.6,10.6,29.3,27.9,29.3
			C-2664.9,67.4-2654.2,52.7-2654.2,38.1z M-2682.2,60.7c-8.6,0-14.6-8.6-14.6-22.6s5.3-22.6,14.6-22.6c8.6,0,14.6,8.6,14.6,22.6
			S-2673.5,60.7-2682.2,60.7z"/>
		<path fill="#231F20" d="M-2586.4,60.1c-5.3,0-6.7-1.3-6.7-6.7V26.8c0-11.3-6.7-18-17.3-18c-7.3,0-12.6,2.7-18.6,10.6v-9.3
			c0-0.7,0-0.7-0.7-0.7h-0.7c-6,2-12,4-17.3,4.7c-0.7,0-0.7,0.7-0.7,1.3v2.7c0,0.7,0.7,1.3,1.3,1.3c4.7,0,6.7,2,6.7,6.7v28.6
			c0,5.3-1.3,6.7-6.7,6.7c-0.7,0-0.7,0.7-0.7,1.3v3.3c0,0.7,0.7,1.3,1.3,1.3h25.9c0.7,0,1.3-0.7,1.3-1.3v-3.3c0-0.7-0.7-1.3-0.7-1.3
			c-5.3,0-6.7-1.3-6.7-6.7V29.5c4-7.3,8.6-10,14-10c7.3,0,8.6,6.7,8.6,12v23.3c0,5.3-1.3,6.7-6.7,6.7c-0.7,0-0.7,0.7-0.7,1.3v3.3
			c0,0.7,0.7,1.3,1.3,1.3h25.9c0.7,0,1.3-0.7,1.3-1.3v-3.3C-2585.7,60.7-2586.4,60.7-2586.4,60.1z"/>
		<path fill="#231F20" d="M-2870.4,108h-20.6c-0.7,0-1.3,0.7-1.3,1.3v3.3c0,0.7,0.7,1.3,1.3,1.3c2,0,6,0.7,6,4c0,2-0.7,4-1.3,6
			l-9.3,23.3l-10-25.3v-0.7c-0.7-1.3-0.7-2-0.7-4c0-0.7,0-2.7,5.3-3.3c0.7,0,0.7-0.7,0.7-1.3v-4c0-0.7-0.7-1.3-1.3-1.3h-25.9
			c-0.7,0-1.3,0.7-1.3,1.3v3.3c0,0.7,0.7,1.3,0.7,1.3c4.7,0,6.7,1.3,9.3,8.6l-10,24.6l-10.6-26.6c-0.7-1.3-0.7-2.7-0.7-4
			c0-0.7,0-2.7,4.7-2.7c0.7,0,1.3-0.7,1.3-1.3v-3.3c0-0.7-0.7-1.3-1.3-1.3h-23.9c-0.7,0-1.3,0.7-1.3,1.3v3.3c0,0.7,0.7,0.7,0.7,1.3
			c2.7,0.7,4.7,0.7,6.7,6l18,43.9c0,0.7,0.7,0.7,0.7,0.7h3.3c0.7,0,0.7,0,0.7-0.7l14-32.6l13.3,32.6c0,0.7,0.7,0.7,0.7,0.7h3.3
			c0.7,0,0.7,0,0.7-0.7l18.6-43.2c2.7-6.7,3.3-6.7,6.7-6.7c0.7,0,1.3-0.7,1.3-1.3v-3.3C-2869.7,108-2869.7,108-2870.4,108z"/>
		<path fill="#231F20" d="M-2839.8,106c-17.3,0-27.9,15.3-27.9,29.3s10.6,29.3,27.9,29.3s27.9-15.3,27.9-29.3
			C-2811.9,121.3-2822.5,106-2839.8,106z M-2839.8,158.5c-8.6,0-14.6-8.6-14.6-22.6s5.3-22.6,14.6-22.6c8.6,0,14.6,8.6,14.6,22.6
			C-2825.8,149.9-2831.2,158.5-2839.8,158.5z"/>
		<path fill="#231F20" d="M-2777.3,106c-17.3,0-27.9,15.3-27.9,29.3s10.6,29.3,27.9,29.3s27.9-15.3,27.9-29.3
			C-2748.7,121.3-2759.3,106-2777.3,106z M-2777.3,158.5c-8.6,0-14.6-8.6-14.6-22.6s5.3-22.6,14.6-22.6c8.6,0,14.6,8.6,14.6,22.6
			S-2768,158.5-2777.3,158.5z"/>
		<path fill="#231F20" d="M-2684.2,155.2c-4.7,0-6-0.7-6-5.3V88.7c0-1.3,0-2,0-3.3c0-1.3,0-2,0-2.7c0,0,0-0.7-0.7-0.7s-0.7,0-0.7,0
			c-2.7,0.7-8.6,2.7-18.6,4c-0.7,0-0.7,0.7-0.7,1.3V90c0,0.7,0.7,0.7,0.7,1.3c5.3,0.7,7.3,1.3,7.3,8v12c-3.3-2.7-8-4-12.6-4
			c-13.3,0-27.3,10.6-27.3,29.3c0,14,9.3,28.6,24.6,28.6c6,0,12-3.3,16-8.6v7.3c0,0.7,0,0.7,0.7,0.7h0.7l0,0
			c5.3-1.3,10.6-2.7,16.6-3.3c0.7,0,0.7-0.7,0.7-1.3v-3.3C-2682.8,155.9-2683.5,155.2-2684.2,155.2z M-2714.8,155.2
			c-10,0-14-12-14-21.3c0-12,6-20.6,14-20.6c4.7,0,8.6,2.7,12,8v24.6C-2704.8,150.5-2708.1,155.2-2714.8,155.2z"/>
		<path fill="#231F20" d="M-2653.6,128.6c-6.7-2-12.6-4-12.6-8.6c0-6.7,7.3-6.7,9.3-6.7c7.3,0,12,3.3,14.6,12c0,0.7,0.7,0.7,0.7,0.7
			h3.3c0.7,0,1.3-0.7,1.3-1.3V108c0-0.7-0.7-1.3-1.3-1.3h-3.3c-0.7,0-0.7,0-0.7,0.7c-1.3,2-1.3,2-2,2c-0.7,0-1.3-0.7-2.7-0.7
			c-2.7-0.7-6-2-10.6-2c-9.3,0-18.6,5.3-18.6,16.6c0,12,10,15.3,18.6,18c6.7,2,12.6,4,12.6,9.3c0,5.3-4.7,8-9.3,8
			c-8.6,0-14-4.7-17.3-14c0-0.7-0.7-0.7-0.7-0.7h-3.3c-0.7,0-1.3,0.7-1.3,1.3v19.3c0,0.7,0.7,1.3,1.3,1.3h3.3c0.7,0,0.7,0,0.7-0.7
			c0.7-2,1.3-3.3,2.7-3.3c0.7,0,2,0.7,3.3,1.3c2.7,1.3,6,2.7,11.3,2.7c14.6,0,20-10.6,20-18
			C-2633.6,135.2-2644.2,131.9-2653.6,128.6z"/>
	</g>
</g>
<g>
	<path fill="#4E4F54" d="M41.2,301.5c-2-11.3-8-31.9,3.3-39.9c3.3-2.7,9.3-1.3,8,3.3c-2,6-8,8-6.7,15.3c2.7,13.3,8.6,25.3,10,38.6
		c1.3,14-1.3,27.3-2.7,40.6c-1.3,14-0.7,29.9,2,43.9c2.7,14,6,25.3,8.6,39.2c1.3,5.3,0.7,8.6-1.3,12c-2.7,6-5.3,4.7-4,0
		c2-8,0-14.6-2.7-14.6s-4,10.6-4.7,12c-0.7,6.7,2.7,12.6,4.7,19.3c2,6.7,3.3,16,2.7,23.3c0,10.6,0,24.6,9.3,31.9
		c4.7,4,1.3,8-2.7,9.3c-4.7,1.3-18,2-22-2.7c-1.3-2-2-2.7-1.3-5.3c5.3-20.6,6-28.6,3.3-43.2c-1.3-7.3-4-14-4.7-21.3
		c-1.3-9.3,1.3-17.3,4-25.9c5.3-16,2.7-35.3-2.7-50.6c-5.3-14.6-8.6-25.3-9.3-33.3c-1.3-12,0-18,0.7-22.6c0.7-4.7,8-8,6,0.7
		c-1.3,6-0.7,22.6,4,20.6c2.7-1.3,4-5.3,4-13.3s-2-14.6-2.7-19.3C44.6,314.2,41.9,304.2,41.2,301.5z"/>
	<path fill="#4E4F54" d="M4.7,535c0-7.3,8.6-7.3,12-8c10.6-2,8-22.6,7.3-29.9c-1.3-14-6-33.9-4-47.9c2-14,4.7-22.6,5.3-36.6
		c0.7-14.6-4.7-29.9-8.6-43.9c-4-14-4.7-26.6-1.3-39.9c2.7-9.3,8-28.6,4.7-37.3c-2.7-6-6.7,2-10.6,2c-4.7,0-13.3-6-7.3-10
		c3.3-2.7,8.6,0,12.6-2c5.3-2,11.3-10,16-2.7c5.3,8.6-4.7,35.3-6.7,45.2c-2.7,17.3-2.7,27.3,0.7,39.2c3.3,14,9.3,23.3,12.6,34.6
		c4,14,4,21.3,1.3,35.3c-3.3,14.6-9.3,23.9-4.7,39.9c6,22,19.3,61.9-16.6,63.9C14,537,4.7,537.7,4.7,535z"/>
	<g>
		<path fill="#4E4F54" d="M79.8,380c-9.3,5.3-2-34.6-2-38.6c1.3-14-3.3-26.6-6.7-39.9c-2.7-9.3-2.7-18-0.7-27.9
			c0.7-4,4-13.3,1.3-17.3c-4-6-10.6,3.3-12,6.7c-2.7,10-3.3,22-0.7,31.3c5.3,17.3,11.3,25.9,8.6,45.2c-1.3,14.6-10.6,27.3-6,41.9
			c2,7.3,5.3,13.3,3.3,21.3c-2,8,0,21.3,2,29.3c4,17.3,8,25.3,3.3,43.2c-4,15.3-7.3,31.9,2,46.6c1.3,1.3,6,8.6,11.3,12.6
			c6.7,5.3,14,4,14.6,2c2-10.6-8.6-10-14.6-18c-4-5.3-5.3-12.6-6.7-18.6c-2-12.6,2-27.9,5.3-39.9c4-15.3-2.7-29.9-2-45.2
			c0.7-10.6,6.7-20,14.6-24.6c4-2.7,10.6-3.3,19.3-3.3c12.6,0,23.9,8.6,23.9,27.9v90.5c0,14.6-8.6,20.6-20,20.6v12.6h91.1v-12.6
			c-14.6-0.7-20.6-6.7-20.6-22V400.7c0-31.3-19.3-49.9-49.2-49.9c-27.3,0-45.2,14-58.5,28.6L79.8,380z"/>
	</g>
</g>
</svg>
