<?xml version="1.0" encoding="utf-8"?>
<!-- Generator: Adobe Illustrator 17.0.2, SVG Export Plug-In . SVG Version: 6.00 Build 0)  -->
<!DOCTYPE svg PUBLIC "-//W3C//DTD SVG 1.1//EN" "http://www.w3.org/Graphics/SVG/1.1/DTD/svg11.dtd">
<svg version="1.1" id="Layer_1" xmlns="http://www.w3.org/2000/svg" xmlns:xlink="http://www.w3.org/1999/xlink" x="0px" y="0px"
	 width="91.951px" height="42.429px" viewBox="0 0 91.951 42.429" enable-background="new 0 0 91.951 42.429" xml:space="preserve">
<g>
	<g>
		<path fill-rule="evenodd" clip-rule="evenodd" fill="#231F20" d="M-589.146-371.839c-1.346-7.337-5.241-20.182,1.974-25.228
			c2.077-1.454,5.942-0.907,4.86,2.258c-1.223,3.574-5.077,4.901-4.095,9.741c1.722,8.479,5.595,15.679,6.435,24.322
			c0.843,8.622-0.992,16.94-1.8,25.457c-0.825,8.761-0.291,18.647,1.182,27.294c1.499,8.842,3.592,15.932,5.471,24.702
			c0.604,2.822,0.262,5.173-0.709,7.213c-1.756,3.687-3.408,2.752-2.645-0.003c1.39-5.048-0.131-9.023-1.56-9.023
			c-1.625,0-2.704,6.757-2.812,7.526c-0.589,4.242,1.774,8.105,3.01,11.894c1.426,4.363,1.885,10.131,1.741,14.752
			c-0.208,6.545-0.08,15.34,5.795,20.041c3.023,2.42,0.965,5.174-1.582,5.818c-2.826,0.717-11.212,1.285-13.632-1.734
			c-0.853-1.064-1.114-1.736-0.676-3.414c3.423-13.078,3.558-18.094,2.194-27.057c-0.693-4.572-2.31-8.93-3.086-13.488
			c-0.983-5.805,0.823-10.944,2.562-16.397c3.203-10.03,1.771-21.928-1.873-31.542c-3.457-9.125-5.269-15.843-5.875-21.016
			c-0.896-7.634-0.117-11.126,0.401-14.11c0.52-2.985,5.007-5.144,3.83,0.205c-0.784,3.564-0.446,14.26,2.62,12.898
			c1.813-0.806,2.62-3.224,2.62-8.263c0-5.038-1.21-9.069-1.814-12.093C-587.201-364.057-588.864-370.299-589.146-371.839z"/>
		<path fill-rule="evenodd" clip-rule="evenodd" fill="#231F20" d="M-612.176-225.584c-0.237-4.889,5.321-4.672,7.632-5.062
			c6.803-1.15,4.98-14.154,4.636-18.787c-0.652-8.852-3.768-21.289-2.56-30.185c1.169-8.618,3.12-14.041,3.467-22.719
			c0.356-8.987-2.716-18.786-5.222-27.346c-2.543-8.688-2.733-16.63-0.86-25.099c1.339-6.053,4.63-17.814,2.253-23.596
			c-1.45-3.527-3.985,1.426-6.406,1.6c-2.761,0.195-8.432-3.894-4.684-6.423c2.185-1.474,5.242-0.059,7.754-1.128
			c3.174-1.354,7.197-6.423,10.027-1.734c3.316,5.479-3.057,22.183-4.01,28.216c-1.701,10.778-1.701,17.018,0.278,24.655
			c2.228,8.59,6.03,14.414,8.041,21.859c2.336,8.669,2.542,13.124,0.688,21.995c-1.958,9.336-5.857,14.922-3.023,24.789
			c3.921,13.648,12.093,38.695-10.34,40.043C-606.505-224.385-612.099-224-612.176-225.584z"/>
		<g>
			<path fill-rule="evenodd" clip-rule="evenodd" fill="#231F20" d="M-565.044-322.586c-6.003,3.413-1.262-21.83-1.08-24.005
				c0.723-8.657-1.916-16.749-4.205-25.011c-1.643-5.924-1.729-11.202-0.447-17.302c0.562-2.667,2.381-8.417,0.779-10.97
				c-2.33-3.718-6.803,2.075-7.441,4.137c-1.838,5.936-2.216,13.5-0.514,19.361c3.172,10.925,7.006,16.375,5.455,28.158
				c-1.182,8.978-6.746,16.972-3.94,26.132c1.359,4.432,3.335,8.448,1.965,13.252c-1.374,4.826,0.052,13.452,1.223,18.218
				c2.64,10.793,5.075,15.959,2.067,27.066c-2.613,9.646-4.598,19.941,1.325,28.967c0.654,0.994,3.705,5.275,6.958,7.787
				c4.148,3.205,8.824,2.617,9.043,1.309c1.146-6.855-5.543-6.414-8.963-11.289c-2.413-3.441-3.326-7.783-4.079-11.83
				c-1.447-7.787,1.258-17.65,3.157-25.193c2.365-9.389-1.754-18.838-1.108-28.327c0.46-6.677,4.014-12.374,9.118-15.376
				c2.62-1.542,6.771-2.244,12.17-2.244c7.981,0,15.071,5.32,15.071,17.509v56.522c0,9.309-5.318,12.854-12.631,12.854v7.98h56.961
				v-7.98c-9.309-0.443-12.852-3.988-12.852-13.74v-63.169c0-19.726-12.193-31.251-30.811-31.251
				c-16.971,0-28.176,8.709-36.609,17.854L-565.044-322.586z"/>
		</g>
	</g>
	<g>
		<path fill="#231F20" d="M-464.728-332.42c3.891,0.426,4.547,1.706,4.547,4.414v33.694c0,3.462-0.969,4.022-4.302,4.145
			c-0.349,0.013-0.626,0.3-0.626,0.649v2.264c0,0.359,0.291,0.65,0.65,0.65h16.248c0.359,0,0.65-0.291,0.65-0.65v-2.264
			c0-0.35-0.277-0.637-0.626-0.649c-3.333-0.124-4.302-0.683-4.302-4.145v-15.868c2.65-4.383,5.272-6.256,8.739-6.256
			c4.581,0,5.542,3.992,5.542,7.341v14.783c0,3.462-0.969,4.022-4.302,4.145c-0.349,0.013-0.626,0.3-0.626,0.649v2.264
			c0,0.359,0.291,0.65,0.65,0.65h16.248c0.359,0,0.65-0.291,0.65-0.65v-2.264c0-0.35-0.277-0.637-0.626-0.649
			c-3.333-0.124-4.302-0.683-4.302-4.145v-16.847c0-6.907-4.176-11.371-10.639-11.371c-4.521,0-7.874,1.769-11.603,6.224v-17.161
			c0-1.01,0.086-1.792,0.161-2.482c0.057-0.512,0.105-0.955,0.105-1.381c0-0.204-0.096-0.396-0.259-0.519
			c-0.163-0.122-0.375-0.161-0.57-0.106c-1.188,0.339-5.521,1.513-11.435,2.379c-0.319,0.047-0.557,0.32-0.557,0.643v1.864
			C-465.309-332.735-465.059-332.456-464.728-332.42z"/>
		<path fill="#231F20" d="M-423.394-316.435c3.337,0.124,4.302,1.143,4.302,4.544v14.783c0,6.921,4.275,11.571,10.639,11.571
			c4.477,0,7.826-1.914,11.238-6.524l-0.103,5.862c-0.003,0.218,0.103,0.423,0.281,0.546c0.11,0.076,0.239,0.115,0.369,0.115
			c0.082,0,0.163-0.016,0.241-0.047c4.087-1.635,8.321-2.26,10.482-2.487c0.33-0.035,0.582-0.314,0.582-0.646v-2.264
			c0-0.349-0.275-0.635-0.623-0.65c-2.762-0.115-3.972-0.58-3.972-4.544v-19.045c0-1.079,0.066-2.204,0.132-3.291
			c0.066-1.106,0.135-2.25,0.135-3.368c0-0.201-0.093-0.39-0.251-0.513c-0.158-0.123-0.361-0.168-0.559-0.118l-11.587,2.93
			c-0.289,0.073-0.491,0.332-0.491,0.63v1.864c0,0.35,0.277,0.637,0.626,0.65c3.337,0.124,4.302,1.143,4.302,4.544v13.835
			c-2.124,4.382-4.734,6.424-8.206,6.424c-4.822,0-5.542-4.725-5.542-7.541v-16.448c0-1.011,0.066-2.067,0.132-3.088
			c0.066-1.042,0.135-2.119,0.135-3.171c0-0.201-0.093-0.39-0.251-0.513c-0.158-0.123-0.362-0.168-0.559-0.118l-11.587,2.93
			c-0.289,0.073-0.491,0.332-0.491,0.63v1.864C-424.02-316.735-423.743-316.448-423.394-316.435z"/>
		<path fill="#231F20" d="M-367.232-285.937c3.726,0,7.561-2.117,9.943-5.334l-0.138,4.665c-0.007,0.208,0.088,0.407,0.253,0.535
			c0.115,0.088,0.255,0.134,0.396,0.134c0.062,0,0.125-0.009,0.186-0.027c3.39-1.012,6.661-1.725,10.294-2.244
			c0.32-0.046,0.559-0.32,0.559-0.644v-2.264c0-0.359-0.291-0.65-0.65-0.65c-3,0-3.812-0.433-3.812-3.479v-38.289
			c0-0.649,0.036-1.352,0.07-2.024c0.032-0.639,0.064-1.252,0.064-1.771c0-0.205-0.097-0.397-0.26-0.52
			c-0.164-0.123-0.374-0.162-0.571-0.105c-1.462,0.423-5.541,1.502-11.829,2.378c-0.321,0.044-0.561,0.319-0.561,0.643v1.864
			c0,0.341,0.265,0.624,0.604,0.648c3.378,0.237,4.789,0.977,4.789,4.945v7.351c-2.267-1.542-5.021-2.408-7.739-2.408
			c-8.321,0-17.165,6.482-17.165,18.496C-382.799-295.33-376.847-285.937-367.232-285.937z M-365.634-291.765
			c-6.303,0-8.539-7.291-8.539-13.534c0-7.498,3.676-12.734,8.939-12.734c3.065,0,5.601,1.763,7.34,5.101v15.259
			C-359.548-294.662-361.53-291.765-365.634-291.765z"/>
		<path fill="#231F20" d="M-341.326-285.804h2.131c0.28,0,0.528-0.179,0.617-0.445c0.422-1.269,0.982-1.886,1.713-1.886
			c0.559,0,1.283,0.34,2.2,0.77c1.643,0.771,3.895,1.828,7.189,1.828c9.173,0,12.503-6.641,12.503-11.105
			c0-7.489-6.793-9.821-12.25-11.696c-4.146-1.424-7.727-2.654-7.727-5.551c0-3.969,4.396-4.278,5.742-4.278
			c4.533,0,7.321,2.267,9.039,7.349c0.09,0.264,0.338,0.442,0.616,0.442h2.197c0.359,0,0.65-0.291,0.65-0.65v-10.588
			c0-0.359-0.291-0.65-0.65-0.65h-2.131c-0.241,0-0.463,0.134-0.575,0.347c-0.674,1.28-0.982,1.384-1.289,1.384
			c-0.428,0-1.022-0.243-1.772-0.549c-1.496-0.611-3.544-1.448-6.685-1.448c-5.669,0-11.771,3.246-11.771,10.372
			c0,7.602,6.158,9.53,11.592,11.231c4.214,1.319,7.853,2.459,7.853,5.949c0,3.298-2.924,5.077-5.676,5.077
			c-5.288,0-8.754-2.825-10.908-8.89c-0.092-0.259-0.337-0.433-0.612-0.433h-1.997c-0.359,0-0.65,0.291-0.65,0.65v12.119
			C-341.977-286.095-341.685-285.804-341.326-285.804z"/>
		<path fill="#231F20" d="M-275.018-304.033c0-9.092-6.595-18.496-17.631-18.496c-11.035,0-17.63,9.404-17.63,18.496
			c0,9.092,6.595,18.496,17.63,18.496C-281.612-285.537-275.018-294.941-275.018-304.033z M-292.648-289.9
			c-5.555,0-9.005-5.415-9.005-14.133c0-8.718,3.45-14.133,9.005-14.133c5.556,0,9.006,5.415,9.006,14.133
			C-283.643-295.316-287.093-289.9-292.648-289.9z"/>
		<path fill="#231F20" d="M-232.824-290.166c-3.333-0.124-4.302-0.683-4.302-4.145v-16.847c0-6.907-4.176-11.371-10.639-11.371
			c-4.536,0-7.938,1.847-11.773,6.502l0.104-5.84c0.003-0.214-0.099-0.416-0.272-0.54c-0.173-0.125-0.396-0.155-0.599-0.083
			c-3.547,1.279-7.587,2.363-10.807,2.9c-0.314,0.052-0.544,0.323-0.544,0.641v1.864c0,0.359,0.291,0.65,0.65,0.65
			c2.991,0,4.211,1.259,4.211,4.344v17.779c0,3.462-0.969,4.022-4.302,4.145c-0.349,0.013-0.626,0.3-0.626,0.649v2.264
			c0,0.359,0.291,0.65,0.65,0.65h16.248c0.359,0,0.65-0.291,0.65-0.65v-2.264c0-0.35-0.277-0.637-0.626-0.649
			c-3.333-0.124-4.302-0.683-4.302-4.145v-15.868c2.65-4.383,5.271-6.256,8.739-6.256c4.581,0,5.542,3.992,5.542,7.341v14.783
			c0,3.462-0.969,4.022-4.302,4.145c-0.349,0.013-0.626,0.3-0.626,0.649v2.264c0,0.359,0.291,0.65,0.65,0.65h16.248
			c0.359,0,0.65-0.291,0.65-0.65v-2.264C-232.198-289.867-232.476-290.154-232.824-290.166z"/>
		<path fill="#231F20" d="M-410.654-260.475h-12.919c-0.359,0-0.65,0.291-0.65,0.65v2.264c0,0.359,0.291,0.65,0.65,0.65
			c1.374,0,3.679,0.305,3.679,2.346c0,1.092-0.592,2.596-1.024,3.695l-5.907,14.473l-6.322-15.988l-0.103-0.283
			c-0.282-0.779-0.525-1.451-0.525-2.295c0-0.541,0-1.807,3.306-1.947c0.349-0.016,0.623-0.301,0.623-0.65v-2.264
			c0-0.359-0.291-0.65-0.65-0.65h-16.115c-0.359,0-0.65,0.291-0.65,0.65v2.264c0,0.35,0.275,0.637,0.624,0.65
			c2.773,0.113,4.175,0.65,5.725,5.25l-6.35,15.277l-6.536-16.49c-0.273-0.684-0.553-1.506-0.553-2.424c0-0.441,0-1.613,3.078-1.613
			c0.359,0,0.65-0.291,0.65-0.65v-2.264c0-0.359-0.291-0.65-0.65-0.65h-14.916c-0.359,0-0.65,0.291-0.65,0.65v2.264
			c0,0.328,0.244,0.605,0.57,0.645c1.853,0.232,2.873,0.359,4.34,3.93l11.32,27.635c0.1,0.244,0.338,0.404,0.602,0.404h2.264
			c0.261,0,0.495-0.154,0.598-0.395l8.71-20.406l8.269,20.395c0.1,0.246,0.338,0.406,0.603,0.406h2.198
			c0.259,0,0.493-0.152,0.596-0.391l11.853-27.234c1.839-4.205,2.272-4.338,4.266-4.338c0.359,0,0.65-0.291,0.65-0.65v-2.264
			C-410.004-260.184-410.295-260.475-410.654-260.475z"/>
		<path fill="#231F20" d="M-391.539-261.541c-11.036,0-17.631,9.406-17.631,18.498s6.595,18.496,17.631,18.496
			c11.035,0,17.63-9.404,17.63-18.496S-380.504-261.541-391.539-261.541z M-391.539-228.913c-5.556,0-9.006-5.414-9.006-14.131
			c0-8.719,3.45-14.133,9.006-14.133c5.555,0,9.005,5.414,9.005,14.133C-382.534-234.327-385.984-228.913-391.539-228.913z"/>
		<path fill="#231F20" d="M-352.115-261.541c-11.036,0-17.631,9.406-17.631,18.498s6.595,18.496,17.631,18.496
			c11.035,0,17.63-9.404,17.63-18.496S-341.08-261.541-352.115-261.541z M-352.115-228.913c-5.556,0-9.006-5.414-9.006-14.131
			c0-8.719,3.45-14.133,9.006-14.133c5.555,0,9.005,5.414,9.005,14.133C-343.11-234.327-346.56-228.913-352.115-228.913z"/>
		<path fill="#231F20" d="M-293.714-230.776c-3,0-3.812-0.434-3.812-3.479v-38.289c0-0.649,0.036-1.352,0.07-2.024
			c0.032-0.64,0.064-1.252,0.064-1.772c0-0.204-0.097-0.396-0.26-0.52c-0.163-0.123-0.376-0.163-0.571-0.104
			c-1.463,0.423-5.545,1.503-11.829,2.378c-0.321,0.045-0.56,0.319-0.56,0.644v1.865c0,0.34,0.265,0.623,0.604,0.648
			c3.378,0.236,4.789,0.977,4.789,4.945v7.35c-2.267-1.541-5.021-2.408-7.739-2.408c-8.321,0-17.165,6.484-17.165,18.498
			c0,8.703,5.952,18.096,15.566,18.096c3.725,0,7.56-2.117,9.943-5.334l-0.138,4.664c-0.007,0.209,0.088,0.408,0.253,0.535
			c0.115,0.088,0.255,0.135,0.396,0.135c0.062,0,0.125-0.01,0.186-0.027c3.395-1.012,6.665-1.725,10.294-2.242
			c0.32-0.047,0.559-0.32,0.559-0.645v-2.264C-293.063-230.485-293.354-230.776-293.714-230.776z M-312.958-230.776
			c-6.303,0-8.539-7.291-8.539-13.533c0-7.498,3.676-12.734,8.938-12.734c3.065,0,5.602,1.764,7.34,5.1v15.26
			C-306.872-233.672-308.854-230.776-312.958-230.776z"/>
		<path fill="#231F20" d="M-274.548-247.35c-4.146-1.424-7.725-2.652-7.725-5.549c0-3.971,4.396-4.277,5.742-4.277
			c4.533,0,7.321,2.266,9.039,7.348c0.09,0.266,0.338,0.443,0.616,0.443h2.197c0.359,0,0.65-0.291,0.65-0.65v-10.588
			c0-0.359-0.291-0.65-0.65-0.65h-2.131c-0.241,0-0.463,0.133-0.575,0.348c-0.674,1.279-0.982,1.383-1.289,1.383
			c-0.428,0-1.022-0.242-1.773-0.549c-1.495-0.611-3.544-1.449-6.685-1.449c-5.669,0-11.77,3.246-11.77,10.373
			c0,7.602,6.159,9.529,11.592,11.232c4.214,1.318,7.853,2.459,7.853,5.947c0,3.297-2.924,5.076-5.676,5.076
			c-5.288,0-8.754-2.824-10.908-8.889c-0.092-0.26-0.337-0.434-0.612-0.434h-1.997c-0.359,0-0.65,0.291-0.65,0.65v12.119
			c0,0.359,0.291,0.65,0.65,0.65h2.131c0.28,0,0.528-0.18,0.617-0.445c0.422-1.268,0.982-1.885,1.713-1.885
			c0.56,0,1.283,0.34,2.2,0.77c1.644,0.771,3.895,1.828,7.19,1.828c9.173,0,12.503-6.641,12.503-11.105
			C-262.297-243.141-269.09-245.475-274.548-247.35z"/>
	</g>
</g>
<g>
	<g>
		<path fill-rule="evenodd" clip-rule="evenodd" fill="#231F20" d="M-474.386-48.863c-0.323-1.762-1.259-4.846,0.474-6.057
			c0.499-0.35,1.427-0.219,1.166,0.541c-0.292,0.859-1.218,1.177-0.981,2.34c0.413,2.035,1.343,3.764,1.545,5.839
			c0.201,2.069-0.239,4.068-0.433,6.112c-0.198,2.104-0.069,4.477,0.284,6.553c0.359,2.124,0.862,3.826,1.314,5.932
			c0.145,0.678,0.062,1.242-0.171,1.732c-0.422,0.885-0.818,0.66-0.635-0.001c0.334-1.213-0.031-2.167-0.375-2.167
			c-0.39,0-0.648,1.622-0.675,1.807c-0.142,1.018,0.427,1.947,0.724,2.855c0.342,1.048,0.452,2.434,0.416,3.543
			c-0.049,1.57-0.019,3.684,1.393,4.811c0.726,0.582,0.231,1.244-0.381,1.398c-0.678,0.172-2.691,0.309-3.272-0.417
			c-0.205-0.255-0.267-0.416-0.163-0.819c0.822-3.141,0.854-4.344,0.527-6.497c-0.167-1.097-0.556-2.144-0.741-3.238
			c-0.236-1.393,0.197-2.627,0.615-3.937c0.77-2.408,0.426-5.265-0.449-7.572c-0.83-2.192-1.266-3.805-1.412-5.047
			c-0.214-1.832-0.027-2.672,0.098-3.389c0.125-0.716,1.201-1.234,0.92,0.05c-0.189,0.856-0.108,3.425,0.629,3.097
			c0.435-0.193,0.629-0.773,0.629-1.984c0-1.209-0.291-2.177-0.436-2.903C-473.919-46.994-474.318-48.494-474.386-48.863z"/>
		<path fill-rule="evenodd" clip-rule="evenodd" fill="#231F20" d="M-479.915-13.747c-0.058-1.175,1.277-1.122,1.832-1.216
			c1.633-0.276,1.195-3.398,1.112-4.512c-0.155-2.125-0.905-5.111-0.614-7.247c0.281-2.069,0.749-3.371,0.832-5.454
			c0.086-2.158-0.652-4.511-1.254-6.566c-0.609-2.086-0.656-3.992-0.207-6.025c0.322-1.455,1.113-4.277,0.542-5.666
			c-0.349-0.848-0.956,0.342-1.538,0.383c-0.663,0.049-2.025-0.934-1.125-1.54c0.525-0.354,1.259-0.015,1.861-0.271
			c0.764-0.325,1.728-1.542,2.408-0.417c0.797,1.316-0.733,5.326-0.963,6.775c-0.408,2.588-0.408,4.086,0.067,5.92
			c0.534,2.062,1.448,3.461,1.931,5.248c0.561,2.081,0.609,3.152,0.165,5.28c-0.47,2.242-1.407,3.583-0.726,5.952
			c0.94,3.276,2.902,9.291-2.482,9.615C-478.554-13.458-479.897-13.367-479.915-13.747z"/>
		<g>
			<path fill-rule="evenodd" clip-rule="evenodd" fill="#231F20" d="M-468.599-37.038c-1.442,0.819-0.303-5.241-0.26-5.763
				c0.174-2.078-0.46-4.021-1.01-6.006c-0.394-1.422-0.416-2.688-0.107-4.152c0.135-0.642,0.572-2.022,0.188-2.636
				c-0.56-0.892-1.634,0.499-1.787,0.993c-0.44,1.426-0.532,3.242-0.123,4.648c0.762,2.623,1.682,3.932,1.311,6.761
				c-0.285,2.156-1.621,4.075-0.947,6.274c0.326,1.064,0.801,2.029,0.472,3.183c-0.329,1.157,0.013,3.229,0.294,4.374
				c0.634,2.591,1.219,3.832,0.496,6.498c-0.627,2.316-1.104,4.787,0.318,6.955c0.156,0.238,0.89,1.268,1.67,1.869
				c0.996,0.771,2.119,0.629,2.172,0.314c0.275-1.646-1.331-1.54-2.152-2.711c-0.579-0.825-0.799-1.867-0.98-2.84
				c-0.347-1.869,0.302-4.238,0.759-6.049c0.567-2.255-0.422-4.523-0.267-6.801c0.11-1.604,0.964-2.971,2.189-3.693
				c0.629-0.369,1.626-0.538,2.923-0.538c1.916,0,3.617,1.278,3.617,4.204v13.57c0,2.236-1.276,3.087-3.032,3.087v1.916h13.677
				v-1.916c-2.236-0.106-3.087-0.958-3.087-3.298V-33.96c0-4.736-2.927-7.504-7.397-7.504c-4.074,0-6.766,2.092-8.789,4.287
				L-468.599-37.038z"/>
		</g>
	</g>
	<g>
		<path fill="#231F20" d="M-444.514-39.398c0.935,0.102,1.091,0.408,1.091,1.059v8.091c0,0.831-0.232,0.966-1.031,0.995
			c-0.084,0.004-0.15,0.072-0.15,0.156v0.543c0,0.087,0.069,0.156,0.155,0.156h3.901c0.087,0,0.156-0.069,0.156-0.156v-0.543
			c0-0.084-0.066-0.152-0.15-0.156c-0.801-0.029-1.032-0.164-1.032-0.995v-3.81c0.636-1.053,1.266-1.502,2.099-1.502
			c1.1,0,1.33,0.959,1.33,1.762v3.55c0,0.831-0.233,0.966-1.033,0.995c-0.084,0.004-0.15,0.072-0.15,0.156v0.543
			c0,0.087,0.07,0.156,0.156,0.156h3.9c0.088,0,0.157-0.069,0.157-0.156v-0.543c0-0.084-0.067-0.152-0.15-0.156
			c-0.8-0.029-1.033-0.164-1.033-0.995v-4.045c0-1.659-1.002-2.731-2.554-2.731c-1.086,0-1.891,0.426-2.787,1.496v-4.121
			c0-0.242,0.021-0.43,0.039-0.596c0.014-0.123,0.026-0.229,0.026-0.332c0-0.049-0.024-0.094-0.062-0.125
			c-0.038-0.028-0.091-0.037-0.137-0.024c-0.286,0.08-1.326,0.361-2.745,0.57c-0.077,0.012-0.135,0.077-0.135,0.154v0.447
			C-444.653-39.474-444.593-39.408-444.514-39.398z"/>
		<path fill="#231F20" d="M-434.59-35.56c0.802,0.029,1.034,0.274,1.034,1.091v3.55c0,1.66,1.025,2.777,2.555,2.777
			c1.074,0,1.878-0.459,2.697-1.566l-0.025,1.408c0,0.052,0.025,0.102,0.068,0.131c0.026,0.017,0.058,0.027,0.088,0.027
			c0.021,0,0.039-0.004,0.059-0.011c0.98-0.392,1.998-0.542,2.518-0.597c0.078-0.01,0.139-0.076,0.139-0.156v-0.543
			c0-0.085-0.065-0.153-0.15-0.156c-0.662-0.027-0.953-0.139-0.953-1.091v-4.573c0-0.259,0.016-0.529,0.032-0.79
			c0.017-0.265,0.032-0.54,0.032-0.809c0-0.048-0.023-0.093-0.061-0.122c-0.037-0.031-0.087-0.041-0.135-0.029l-2.781,0.704
			c-0.069,0.017-0.118,0.079-0.118,0.15v0.448c0,0.084,0.067,0.152,0.151,0.156c0.801,0.029,1.032,0.274,1.032,1.091v3.321
			c-0.51,1.053-1.138,1.543-1.971,1.543c-1.157,0-1.331-1.135-1.331-1.81v-3.949c0-0.243,0.017-0.496,0.033-0.74
			c0.015-0.251,0.031-0.511,0.031-0.763c0-0.048-0.022-0.093-0.06-0.122c-0.038-0.031-0.087-0.041-0.135-0.029l-2.781,0.704
			c-0.069,0.017-0.118,0.079-0.118,0.15v0.448C-434.739-35.632-434.673-35.564-434.59-35.56z"/>
		<path fill="#231F20" d="M-421.104-28.238c0.895,0,1.815-0.508,2.387-1.281l-0.032,1.121c-0.001,0.05,0.02,0.098,0.06,0.127
			c0.028,0.023,0.062,0.033,0.095,0.033c0.016,0,0.03-0.002,0.045-0.006c0.814-0.244,1.599-0.415,2.471-0.539
			c0.077-0.012,0.136-0.076,0.136-0.154v-0.544c0-0.086-0.071-0.157-0.157-0.157c-0.72,0-0.914-0.104-0.914-0.834v-9.193
			c0-0.156,0.008-0.324,0.016-0.486c0.008-0.152,0.016-0.301,0.016-0.426c0-0.049-0.023-0.094-0.062-0.125
			c-0.039-0.028-0.09-0.037-0.137-0.024c-0.351,0.101-1.331,0.36-2.84,0.57c-0.078,0.01-0.135,0.076-0.135,0.154v0.447
			c0,0.082,0.062,0.15,0.145,0.156c0.811,0.058,1.15,0.234,1.15,1.188v1.764c-0.544-0.369-1.206-0.578-1.859-0.578
			c-1.998,0-4.121,1.558-4.121,4.442C-424.843-30.494-423.413-28.238-421.104-28.238z M-420.722-29.638
			c-1.512,0-2.049-1.75-2.049-3.248c0-1.801,0.881-3.059,2.146-3.059c0.734,0,1.344,0.423,1.762,1.226v3.663
			C-419.259-30.331-419.735-29.638-420.722-29.638z"/>
		<path fill="#231F20" d="M-414.884-28.206h0.511c0.067,0,0.127-0.042,0.148-0.105c0.101-0.306,0.236-0.453,0.411-0.453
			c0.135,0,0.308,0.081,0.527,0.184c0.395,0.185,0.935,0.438,1.727,0.438c2.202,0,3.001-1.594,3.001-2.666
			c0-1.799-1.631-2.357-2.941-2.809c-0.995-0.342-1.855-0.637-1.855-1.332c0-0.953,1.057-1.027,1.379-1.027
			c1.089,0,1.759,0.545,2.171,1.766c0.023,0.062,0.081,0.105,0.148,0.105h0.529c0.086,0,0.155-0.07,0.155-0.157v-2.542
			c0-0.086-0.069-0.155-0.155-0.155h-0.513c-0.058,0-0.11,0.03-0.138,0.083c-0.162,0.307-0.236,0.332-0.31,0.332
			c-0.102,0-0.246-0.058-0.426-0.131c-0.36-0.148-0.851-0.35-1.605-0.35c-1.362,0-2.826,0.779-2.826,2.492
			c0,1.824,1.478,2.287,2.783,2.695c1.012,0.318,1.885,0.591,1.885,1.43c0,0.791-0.701,1.218-1.363,1.218
			c-1.269,0-2.102-0.677-2.619-2.134c-0.02-0.062-0.08-0.105-0.146-0.105h-0.479c-0.088,0-0.157,0.07-0.157,0.158v2.909
			C-415.041-28.276-414.972-28.206-414.884-28.206z"/>
		<path fill="#231F20" d="M-398.964-32.582c0-2.183-1.584-4.442-4.233-4.442c-2.649,0-4.232,2.26-4.232,4.442
			c0,2.183,1.583,4.44,4.232,4.44C-400.548-28.142-398.964-30.4-398.964-32.582z M-403.197-29.19c-1.333,0-2.161-1.3-2.161-3.393
			s0.828-3.394,2.161-3.394c1.335,0,2.161,1.301,2.161,3.394S-401.862-29.19-403.197-29.19z"/>
		<path fill="#231F20" d="M-388.833-29.253c-0.801-0.029-1.033-0.164-1.033-0.995v-4.045c0-1.659-1.002-2.731-2.555-2.731
			c-1.089,0-1.906,0.445-2.826,1.562l0.025-1.402c0.001-0.051-0.024-0.1-0.066-0.129c-0.041-0.031-0.095-0.037-0.143-0.021
			c-0.852,0.309-1.821,0.568-2.595,0.696c-0.075,0.014-0.13,0.079-0.13,0.154v0.448c0,0.086,0.069,0.156,0.155,0.156
			c0.719,0,1.012,0.303,1.012,1.043v4.269c0,0.831-0.233,0.966-1.033,0.995c-0.083,0.004-0.15,0.072-0.15,0.156v0.543
			c0,0.087,0.07,0.156,0.156,0.156h3.902c0.086,0,0.155-0.069,0.155-0.156v-0.543c0-0.084-0.067-0.152-0.15-0.156
			c-0.802-0.029-1.032-0.164-1.032-0.995v-3.81c0.636-1.053,1.265-1.502,2.098-1.502c1.1,0,1.33,0.959,1.33,1.762v3.55
			c0,0.831-0.232,0.966-1.032,0.995c-0.083,0.004-0.15,0.072-0.15,0.156v0.543c0,0.087,0.069,0.156,0.155,0.156h3.902
			c0.086,0,0.156-0.069,0.156-0.156v-0.543C-388.683-29.181-388.75-29.249-388.833-29.253z"/>
		<path fill="#231F20" d="M-431.53-22.124h-3.102c-0.087,0-0.156,0.07-0.156,0.156v0.543c0,0.086,0.069,0.157,0.156,0.157
			c0.329,0,0.883,0.073,0.883,0.562c0,0.263-0.143,0.624-0.246,0.888l-1.418,3.475l-1.518-3.839l-0.025-0.068
			c-0.067-0.186-0.126-0.348-0.126-0.551c0-0.13,0-0.434,0.794-0.467c0.083-0.003,0.148-0.073,0.148-0.157v-0.543
			c0-0.086-0.068-0.156-0.156-0.156h-3.869c-0.086,0-0.155,0.07-0.155,0.156v0.543c0,0.084,0.065,0.154,0.149,0.157
			c0.667,0.026,1.003,0.155,1.375,1.26l-1.524,3.669l-1.569-3.961c-0.064-0.164-0.133-0.36-0.133-0.581c0-0.106,0-0.387,0.74-0.387
			c0.086,0,0.155-0.071,0.155-0.157v-0.543c0-0.086-0.069-0.156-0.155-0.156h-3.582c-0.087,0-0.156,0.07-0.156,0.156v0.543
			c0,0.08,0.059,0.146,0.137,0.154c0.444,0.057,0.69,0.087,1.041,0.943l2.719,6.636c0.024,0.06,0.081,0.097,0.145,0.097h0.545
			c0.061,0,0.117-0.036,0.142-0.094l2.092-4.899l1.985,4.897c0.024,0.06,0.081,0.097,0.145,0.097h0.527
			c0.062,0,0.119-0.036,0.145-0.094l2.845-6.538c0.441-1.01,0.546-1.041,1.024-1.041c0.086,0,0.155-0.071,0.155-0.157v-0.543
			C-431.375-22.054-431.444-22.124-431.53-22.124z"/>
		<path fill="#231F20" d="M-426.94-22.38c-2.649,0-4.233,2.258-4.233,4.441c0,2.183,1.584,4.441,4.233,4.441
			c2.648,0,4.232-2.259,4.232-4.441C-422.708-20.123-424.292-22.38-426.94-22.38z M-426.94-14.546c-1.334,0-2.162-1.299-2.162-3.393
			c0-2.094,0.828-3.393,2.162-3.393c1.334,0,2.162,1.3,2.162,3.393C-424.778-15.845-425.606-14.546-426.94-14.546z"/>
		<path fill="#231F20" d="M-417.475-22.38c-2.65,0-4.233,2.258-4.233,4.441c0,2.183,1.583,4.441,4.233,4.441
			c2.648,0,4.233-2.259,4.233-4.441C-413.241-20.123-414.826-22.38-417.475-22.38z M-417.475-14.546
			c-1.335,0-2.163-1.299-2.163-3.393c0-2.094,0.828-3.393,2.163-3.393c1.333,0,2.161,1.3,2.161,3.393
			C-415.313-15.845-416.142-14.546-417.475-14.546z"/>
		<path fill="#231F20" d="M-403.452-14.994c-0.721,0-0.916-0.104-0.916-0.836v-9.192c0-0.155,0.009-0.325,0.018-0.485
			c0.008-0.154,0.015-0.301,0.015-0.426c0-0.05-0.023-0.096-0.062-0.125c-0.039-0.029-0.09-0.039-0.137-0.025
			c-0.353,0.102-1.333,0.361-2.841,0.57c-0.078,0.012-0.136,0.078-0.136,0.154v0.449c0,0.081,0.064,0.148,0.146,0.156
			c0.811,0.056,1.148,0.233,1.148,1.185v1.766c-0.543-0.371-1.205-0.578-1.857-0.578c-1.998,0-4.122,1.557-4.122,4.441
			c0,2.09,1.431,4.344,3.737,4.344c0.896,0,1.815-0.508,2.388-1.28l-0.032,1.12c-0.002,0.051,0.021,0.098,0.06,0.129
			c0.027,0.021,0.062,0.031,0.096,0.031c0.014,0,0.029-0.001,0.043-0.006c0.816-0.242,1.602-0.414,2.473-0.538
			c0.076-0.013,0.134-0.077,0.134-0.154v-0.544C-403.297-14.923-403.366-14.994-403.452-14.994z M-408.073-14.994
			c-1.513,0-2.051-1.752-2.051-3.25c0-1.8,0.883-3.057,2.147-3.057c0.736,0,1.345,0.424,1.762,1.225v3.663
			C-406.612-15.689-407.088-14.994-408.073-14.994z"/>
		<path fill="#231F20" d="M-398.851-18.974c-0.996-0.342-1.855-0.636-1.855-1.331c0-0.954,1.056-1.027,1.379-1.027
			c1.089,0,1.758,0.544,2.17,1.765c0.022,0.064,0.081,0.107,0.148,0.107h0.527c0.086,0,0.156-0.07,0.156-0.155v-2.543
			c0-0.087-0.07-0.156-0.156-0.156h-0.512c-0.058,0-0.111,0.031-0.139,0.083c-0.162,0.308-0.234,0.333-0.309,0.333
			c-0.104,0-0.246-0.06-0.426-0.133c-0.359-0.146-0.851-0.348-1.605-0.348c-1.361,0-2.826,0.779-2.826,2.49
			c0,1.824,1.479,2.288,2.783,2.697c1.012,0.316,1.885,0.59,1.885,1.428c0,0.792-0.701,1.219-1.361,1.219
			c-1.27,0-2.103-0.678-2.62-2.135c-0.021-0.062-0.081-0.103-0.146-0.103h-0.48c-0.086,0-0.156,0.07-0.156,0.156v2.91
			c0,0.086,0.07,0.156,0.156,0.156h0.512c0.067,0,0.127-0.044,0.148-0.107c0.1-0.305,0.235-0.451,0.411-0.451
			c0.135,0,0.308,0.08,0.528,0.184c0.394,0.186,0.936,0.439,1.727,0.439c2.201,0,3.001-1.596,3.001-2.667
			C-395.91-17.962-397.541-18.523-398.851-18.974z"/>
	</g>
</g>
<g>
	<g>
		<path fill-rule="evenodd" clip-rule="evenodd" fill="#4E4F54" d="M6.248,7.023C5.924,5.261,4.989,2.177,6.721,0.967
			c0.499-0.35,1.427-0.219,1.166,0.541c-0.292,0.859-1.218,1.177-0.981,2.34c0.413,2.035,1.343,3.764,1.545,5.839
			c0.201,2.069-0.239,4.068-0.433,6.112c-0.198,2.103-0.069,4.477,0.284,6.553c0.359,2.124,0.862,3.826,1.314,5.932
			c0.145,0.678,0.062,1.242-0.171,1.732c-0.422,0.885-0.818,0.66-0.635-0.001c0.334-1.213-0.031-2.167-0.375-2.167
			c-0.39,0-0.648,1.622-0.675,1.807c-0.142,1.018,0.427,1.947,0.724,2.855c0.342,1.048,0.452,2.434,0.416,3.543
			c-0.049,1.57-0.019,3.684,1.393,4.811c0.726,0.582,0.231,1.244-0.381,1.398C9.234,42.433,7.22,42.57,6.64,41.844
			c-0.205-0.255-0.267-0.416-0.163-0.819c0.822-3.141,0.854-4.344,0.527-6.497c-0.167-1.097-0.556-2.144-0.741-3.238
			c-0.236-1.393,0.197-2.627,0.615-3.937c0.769-2.408,0.426-5.265-0.449-7.572c-0.83-2.192-1.266-3.805-1.412-5.047
			c-0.214-1.832-0.027-2.672,0.098-3.389c0.125-0.716,1.201-1.234,0.92,0.05c-0.188,0.856-0.108,3.425,0.629,3.097
			c0.435-0.193,0.629-0.774,0.629-1.984c0-1.209-0.291-2.177-0.436-2.903C6.714,8.892,6.315,7.392,6.248,7.023z"/>
		<path fill-rule="evenodd" clip-rule="evenodd" fill="#4E4F54" d="M0.718,42.139c-0.058-1.175,1.277-1.122,1.832-1.216
			c1.633-0.276,1.195-3.398,1.112-4.512c-0.155-2.125-0.905-5.111-0.614-7.247c0.281-2.069,0.749-3.371,0.832-5.454
			c0.086-2.158-0.652-4.511-1.254-6.566c-0.609-2.086-0.656-3.992-0.207-6.025c0.322-1.455,1.113-4.277,0.542-5.666
			C2.613,4.605,2.005,5.795,1.423,5.836C0.76,5.884-0.602,4.902,0.298,4.296C0.824,3.941,1.557,4.281,2.16,4.024
			c0.764-0.325,1.729-1.542,2.408-0.417c0.797,1.316-0.733,5.326-0.963,6.775c-0.408,2.588-0.408,4.086,0.067,5.92
			c0.534,2.062,1.448,3.461,1.931,5.248c0.561,2.081,0.609,3.152,0.165,5.28c-0.47,2.242-1.407,3.583-0.726,5.952
			c0.94,3.276,2.902,9.291-2.482,9.615C2.08,42.427,0.736,42.519,0.718,42.139z"/>
		<g>
			<path fill-rule="evenodd" clip-rule="evenodd" fill="#4E4F54" d="M12.035,18.848c-1.442,0.819-0.303-5.241-0.26-5.763
				c0.174-2.078-0.46-4.022-1.01-6.006c-0.394-1.422-0.416-2.688-0.107-4.152c0.135-0.642,0.572-2.023,0.188-2.636
				C10.286-0.6,9.211,0.791,9.058,1.285c-0.44,1.426-0.532,3.242-0.123,4.648c0.762,2.623,1.682,3.932,1.311,6.761
				c-0.285,2.156-1.621,4.075-0.947,6.274c0.326,1.065,0.801,2.029,0.472,3.183c-0.329,1.157,0.013,3.229,0.294,4.374
				c0.634,2.591,1.219,3.832,0.496,6.498c-0.627,2.316-1.104,4.787,0.318,6.955c0.156,0.238,0.89,1.268,1.67,1.869
				c0.996,0.771,2.119,0.629,2.172,0.315c0.275-1.646-1.331-1.54-2.152-2.711c-0.579-0.825-0.799-1.867-0.979-2.84
				c-0.347-1.869,0.302-4.238,0.759-6.049c0.567-2.255-0.422-4.523-0.267-6.801c0.11-1.604,0.964-2.971,2.189-3.693
				c0.629-0.369,1.626-0.538,2.923-0.538c1.916,0,3.617,1.278,3.617,4.204v13.57c0,2.236-1.276,3.087-3.032,3.087v1.916h13.677
				v-1.916c-2.236-0.107-3.087-0.958-3.087-3.298V21.925c0-4.736-2.927-7.504-7.398-7.504c-4.074,0-6.766,2.092-8.789,4.287
				L12.035,18.848z"/>
		</g>
	</g>
	<g>
		<path fill="#4E4F54" d="M36.12,16.488c0.935,0.102,1.091,0.408,1.091,1.059v8.091c0,0.831-0.232,0.966-1.031,0.995
			c-0.084,0.004-0.15,0.072-0.15,0.156v0.543c0,0.087,0.069,0.156,0.155,0.156h3.901c0.087,0,0.156-0.069,0.156-0.156v-0.543
			c0-0.084-0.066-0.152-0.15-0.156c-0.801-0.029-1.032-0.164-1.032-0.995v-3.81c0.636-1.053,1.266-1.502,2.099-1.502
			c1.1,0,1.33,0.959,1.33,1.762v3.55c0,0.831-0.233,0.966-1.033,0.995c-0.084,0.004-0.15,0.072-0.15,0.156v0.543
			c0,0.087,0.07,0.156,0.156,0.156h3.9c0.088,0,0.157-0.069,0.157-0.156v-0.543c0-0.084-0.067-0.152-0.15-0.156
			c-0.8-0.029-1.033-0.164-1.033-0.995v-4.045c0-1.659-1.002-2.731-2.554-2.731c-1.086,0-1.891,0.426-2.787,1.496v-4.121
			c0-0.242,0.021-0.43,0.039-0.596c0.014-0.123,0.026-0.229,0.026-0.332c0-0.049-0.024-0.094-0.062-0.125
			c-0.038-0.028-0.091-0.037-0.137-0.023c-0.286,0.08-1.326,0.361-2.745,0.57c-0.077,0.012-0.135,0.077-0.135,0.154v0.447
			C35.98,16.412,36.041,16.478,36.12,16.488z"/>
		<path fill="#4E4F54" d="M46.044,20.326c0.802,0.029,1.034,0.274,1.034,1.091v3.55c0,1.66,1.025,2.777,2.555,2.777
			c1.074,0,1.878-0.459,2.697-1.566l-0.025,1.408c0,0.052,0.025,0.102,0.068,0.131c0.026,0.017,0.058,0.027,0.088,0.027
			c0.021,0,0.039-0.004,0.059-0.011c0.98-0.392,1.998-0.542,2.518-0.597c0.078-0.01,0.139-0.076,0.139-0.156v-0.543
			c0-0.085-0.065-0.153-0.15-0.156c-0.662-0.027-0.953-0.139-0.953-1.091v-4.573c0-0.259,0.016-0.529,0.032-0.79
			c0.017-0.265,0.032-0.54,0.032-0.809c0-0.048-0.023-0.093-0.06-0.122c-0.037-0.031-0.087-0.041-0.135-0.029l-2.781,0.704
			c-0.069,0.017-0.118,0.079-0.118,0.15v0.448c0,0.084,0.067,0.152,0.151,0.156c0.801,0.029,1.032,0.274,1.032,1.091v3.321
			c-0.51,1.053-1.138,1.543-1.971,1.543c-1.157,0-1.331-1.135-1.331-1.81v-3.949c0-0.243,0.017-0.496,0.033-0.74
			c0.015-0.251,0.031-0.511,0.031-0.763c0-0.048-0.021-0.093-0.06-0.122c-0.038-0.031-0.087-0.041-0.135-0.029l-2.781,0.704
			c-0.069,0.017-0.118,0.079-0.118,0.15v0.448C45.894,20.254,45.96,20.322,46.044,20.326z"/>
		<path fill="#4E4F54" d="M59.529,27.648c0.895,0,1.814-0.508,2.387-1.281l-0.032,1.121c-0.001,0.05,0.021,0.098,0.061,0.127
			c0.028,0.023,0.062,0.033,0.095,0.033c0.016,0,0.03-0.002,0.045-0.006c0.814-0.244,1.599-0.415,2.471-0.539
			c0.077-0.012,0.136-0.076,0.136-0.154v-0.544c0-0.086-0.071-0.157-0.157-0.157c-0.72,0-0.914-0.104-0.914-0.834V16.22
			c0-0.156,0.008-0.324,0.016-0.486c0.008-0.152,0.016-0.301,0.016-0.426c0-0.049-0.023-0.094-0.062-0.125
			c-0.039-0.028-0.09-0.037-0.137-0.023c-0.351,0.101-1.331,0.36-2.84,0.57c-0.078,0.01-0.135,0.076-0.135,0.154v0.447
			c0,0.082,0.062,0.15,0.145,0.156c0.812,0.058,1.15,0.234,1.15,1.188v1.764c-0.544-0.369-1.206-0.578-1.859-0.578
			c-1.998,0-4.121,1.558-4.121,4.442C55.791,25.392,57.22,27.648,59.529,27.648z M59.912,26.248c-1.512,0-2.049-1.75-2.049-3.248
			c0-1.801,0.881-3.059,2.146-3.059c0.734,0,1.344,0.423,1.762,1.226v3.663C61.375,25.554,60.898,26.248,59.912,26.248z"/>
		<path fill="#4E4F54" d="M65.75,27.679h0.511c0.067,0,0.127-0.042,0.148-0.105c0.101-0.306,0.236-0.453,0.411-0.453
			c0.135,0,0.308,0.081,0.527,0.184c0.396,0.185,0.936,0.438,1.728,0.438c2.202,0,3.001-1.594,3.001-2.666
			c0-1.799-1.631-2.357-2.941-2.809c-0.995-0.342-1.855-0.637-1.855-1.332c0-0.953,1.057-1.027,1.379-1.027
			c1.089,0,1.759,0.545,2.171,1.766c0.022,0.062,0.081,0.105,0.147,0.105h0.529c0.086,0,0.155-0.07,0.155-0.157v-2.542
			c0-0.086-0.069-0.155-0.155-0.155h-0.513c-0.058,0-0.11,0.03-0.138,0.083c-0.162,0.307-0.236,0.332-0.31,0.332
			c-0.102,0-0.246-0.058-0.426-0.131c-0.36-0.148-0.851-0.35-1.604-0.35c-1.362,0-2.826,0.779-2.826,2.492
			c0,1.824,1.479,2.287,2.783,2.695c1.012,0.318,1.885,0.591,1.885,1.43c0,0.791-0.701,1.218-1.363,1.218
			c-1.269,0-2.102-0.677-2.619-2.134c-0.021-0.062-0.08-0.105-0.146-0.105H65.75c-0.088,0-0.157,0.07-0.157,0.158v2.909
			C65.592,27.61,65.662,27.679,65.75,27.679z"/>
		<path fill="#4E4F54" d="M81.669,23.303c0-2.183-1.584-4.442-4.233-4.442s-4.232,2.26-4.232,4.442s1.583,4.44,4.232,4.44
			S81.669,25.486,81.669,23.303z M77.436,26.696c-1.333,0-2.161-1.3-2.161-3.393s0.828-3.394,2.161-3.394
			c1.335,0,2.161,1.301,2.161,3.394S78.771,26.696,77.436,26.696z"/>
		<path fill="#4E4F54" d="M91.8,26.633c-0.801-0.029-1.033-0.164-1.033-0.995v-4.045c0-1.659-1.002-2.731-2.555-2.731
			c-1.089,0-1.906,0.445-2.826,1.562l0.025-1.402c0.001-0.051-0.024-0.1-0.066-0.129c-0.041-0.031-0.095-0.037-0.144-0.021
			c-0.852,0.309-1.821,0.568-2.595,0.696c-0.075,0.014-0.13,0.079-0.13,0.154v0.448c0,0.086,0.069,0.156,0.155,0.156
			c0.719,0,1.012,0.303,1.012,1.043v4.269c0,0.831-0.233,0.966-1.033,0.995c-0.083,0.004-0.15,0.072-0.15,0.156v0.543
			c0,0.087,0.07,0.156,0.156,0.156h3.902c0.086,0,0.155-0.069,0.155-0.156v-0.543c0-0.084-0.067-0.152-0.15-0.156
			c-0.802-0.029-1.032-0.164-1.032-0.995v-3.81c0.636-1.053,1.265-1.502,2.098-1.502c1.1,0,1.33,0.959,1.33,1.762v3.55
			c0,0.831-0.232,0.966-1.032,0.995c-0.083,0.004-0.15,0.072-0.15,0.156v0.543c0,0.087,0.069,0.156,0.155,0.156h3.902
			c0.086,0,0.156-0.069,0.156-0.156v-0.543C91.951,26.705,91.883,26.636,91.8,26.633z"/>
		<path fill="#4E4F54" d="M49.103,33.761h-3.101c-0.087,0-0.156,0.07-0.156,0.156v0.543c0,0.086,0.069,0.157,0.156,0.157
			c0.329,0,0.883,0.073,0.883,0.562c0,0.263-0.143,0.624-0.246,0.888l-1.418,3.475l-1.518-3.839l-0.025-0.068
			c-0.067-0.187-0.126-0.348-0.126-0.551c0-0.13,0-0.434,0.794-0.467c0.083-0.003,0.148-0.073,0.148-0.157v-0.543
			c0-0.086-0.068-0.156-0.156-0.156h-3.869c-0.086,0-0.155,0.07-0.155,0.156v0.543c0,0.084,0.065,0.154,0.149,0.157
			c0.667,0.026,1.003,0.155,1.375,1.26l-1.524,3.669l-1.569-3.961c-0.064-0.164-0.133-0.36-0.133-0.581c0-0.106,0-0.387,0.74-0.387
			c0.086,0,0.155-0.071,0.155-0.157v-0.543c0-0.086-0.069-0.156-0.155-0.156h-3.582c-0.087,0-0.156,0.07-0.156,0.156v0.543
			c0,0.08,0.059,0.146,0.137,0.154c0.444,0.057,0.69,0.087,1.041,0.943l2.719,6.636c0.024,0.06,0.081,0.097,0.145,0.097h0.545
			c0.061,0,0.117-0.036,0.142-0.094l2.092-4.899l1.985,4.896c0.024,0.06,0.081,0.097,0.144,0.097h0.527
			c0.062,0,0.119-0.036,0.145-0.094l2.845-6.538c0.441-1.01,0.546-1.041,1.024-1.041c0.086,0,0.155-0.071,0.155-0.157v-0.543
			C49.258,33.832,49.189,33.761,49.103,33.761z"/>
		<path fill="#4E4F54" d="M53.693,33.506c-2.649,0-4.233,2.258-4.233,4.441c0,2.183,1.584,4.441,4.233,4.441
			c2.648,0,4.232-2.259,4.232-4.441C57.925,35.763,56.341,33.506,53.693,33.506z M53.693,41.34c-1.334,0-2.162-1.299-2.162-3.393
			c0-2.094,0.828-3.394,2.162-3.394s2.162,1.3,2.162,3.394C55.855,40.041,55.027,41.34,53.693,41.34z"/>
		<path fill="#4E4F54" d="M63.159,33.506c-2.65,0-4.233,2.258-4.233,4.441c0,2.183,1.583,4.441,4.233,4.441
			c2.648,0,4.233-2.259,4.233-4.441C67.392,35.763,65.807,33.506,63.159,33.506z M63.159,41.34c-1.335,0-2.163-1.299-2.163-3.393
			c0-2.094,0.828-3.394,2.163-3.394c1.333,0,2.161,1.3,2.161,3.394C65.32,40.041,64.492,41.34,63.159,41.34z"/>
		<path fill="#4E4F54" d="M77.181,40.892c-0.721,0-0.916-0.104-0.916-0.836v-9.192c0-0.155,0.009-0.325,0.018-0.485
			c0.008-0.154,0.015-0.301,0.015-0.426c0-0.05-0.024-0.096-0.062-0.125c-0.039-0.029-0.09-0.039-0.137-0.025
			c-0.353,0.102-1.333,0.361-2.841,0.57c-0.078,0.012-0.136,0.078-0.136,0.154v0.449c0,0.081,0.064,0.148,0.146,0.156
			c0.811,0.056,1.148,0.233,1.148,1.186v1.766c-0.543-0.371-1.205-0.578-1.857-0.578c-1.998,0-4.122,1.557-4.122,4.441
			c0,2.09,1.431,4.344,3.737,4.344c0.896,0,1.815-0.508,2.388-1.28l-0.032,1.12c-0.002,0.051,0.021,0.098,0.061,0.129
			c0.027,0.021,0.062,0.031,0.096,0.031c0.014,0,0.029-0.001,0.043-0.006c0.816-0.242,1.602-0.414,2.473-0.538
			c0.076-0.013,0.134-0.077,0.134-0.154v-0.544C77.336,40.963,77.267,40.892,77.181,40.892z M72.56,40.892
			c-1.513,0-2.051-1.752-2.051-3.25c0-1.8,0.883-3.057,2.146-3.057c0.736,0,1.345,0.424,1.762,1.225v3.663
			C74.021,40.197,73.545,40.892,72.56,40.892z"/>
		<path fill="#4E4F54" d="M81.783,36.912c-0.996-0.342-1.855-0.636-1.855-1.331c0-0.954,1.056-1.027,1.379-1.027
			c1.089,0,1.758,0.544,2.17,1.765c0.022,0.063,0.081,0.106,0.148,0.106h0.527c0.086,0,0.156-0.07,0.156-0.155v-2.543
			c0-0.087-0.07-0.156-0.156-0.156H83.64c-0.058,0-0.111,0.031-0.139,0.083c-0.162,0.308-0.234,0.333-0.309,0.333
			c-0.104,0-0.246-0.06-0.426-0.133c-0.359-0.146-0.851-0.348-1.605-0.348c-1.361,0-2.826,0.779-2.826,2.49
			c0,1.824,1.479,2.288,2.783,2.697c1.012,0.316,1.885,0.59,1.885,1.428c0,0.792-0.701,1.219-1.361,1.219
			c-1.27,0-2.103-0.678-2.62-2.135c-0.021-0.062-0.081-0.104-0.146-0.104h-0.48c-0.086,0-0.156,0.07-0.156,0.156v2.91
			c0,0.086,0.07,0.156,0.156,0.156h0.512c0.067,0,0.127-0.044,0.148-0.107c0.101-0.305,0.235-0.451,0.411-0.451
			c0.135,0,0.308,0.08,0.528,0.184c0.395,0.186,0.936,0.439,1.727,0.439c2.201,0,3.001-1.596,3.001-2.667
			C84.723,37.924,83.092,37.363,81.783,36.912z"/>
	</g>
</g>
</svg>
