<?xml version="1.0" encoding="utf-8"?>
<!-- Generator: Adobe Illustrator 18.0.0, SVG Export Plug-In . SVG Version: 6.00 Build 0)  -->
<!DOCTYPE svg PUBLIC "-//W3C//DTD SVG 1.1//EN" "http://www.w3.org/Graphics/SVG/1.1/DTD/svg11.dtd">
<svg version="1.1" id="Layer_1" xmlns="http://www.w3.org/2000/svg" xmlns:xlink="http://www.w3.org/1999/xlink" x="0px" y="0px"
	 viewBox="0 0 92 42.4" enable-background="new 0 0 92 42.4" xml:space="preserve">
<g>
	<g>
		<path fill="#231F20" d="M-589.1-371.8c-1.3-7.3-5.2-20.2,2-25.2c2.1-1.5,5.9-0.9,4.9,2.3c-1.2,3.6-5.1,4.9-4.1,9.7
			c1.7,8.5,5.6,15.7,6.4,24.3c0.8,8.6-1,16.9-1.8,25.5c-0.8,8.8-0.3,18.6,1.2,27.3c1.5,8.8,3.6,15.9,5.5,24.7
			c0.6,2.8,0.3,5.2-0.7,7.2c-1.8,3.7-3.4,2.8-2.6,0c1.4-5-0.1-9-1.6-9c-1.6,0-2.7,6.8-2.8,7.5c-0.6,4.2,1.8,8.1,3,11.9
			c1.4,4.4,1.9,10.1,1.7,14.8c-0.2,6.5-0.1,15.3,5.8,20c3,2.4,1,5.2-1.6,5.8c-2.8,0.7-11.2,1.3-13.6-1.7c-0.9-1.1-1.1-1.7-0.7-3.4
			c3.4-13.1,3.6-18.1,2.2-27.1c-0.7-4.6-2.3-8.9-3.1-13.5c-1-5.8,0.8-10.9,2.6-16.4c3.2-10,1.8-21.9-1.9-31.5
			c-3.5-9.1-5.3-15.8-5.9-21c-0.9-7.6-0.1-11.1,0.4-14.1c0.5-3,5-5.1,3.8,0.2c-0.8,3.6-0.4,14.3,2.6,12.9c1.8-0.8,2.6-3.2,2.6-8.3
			c0-5-1.2-9.1-1.8-12.1C-587.2-364.1-588.9-370.3-589.1-371.8z"/>
		<path fill="#231F20" d="M-612.2-225.6c-0.2-4.9,5.3-4.7,7.6-5.1c6.8-1.1,5-14.2,4.6-18.8c-0.7-8.9-3.8-21.3-2.6-30.2
			c1.2-8.6,3.1-14,3.5-22.7c0.4-9-2.7-18.8-5.2-27.3c-2.5-8.7-2.7-16.6-0.9-25.1c1.3-6.1,4.6-17.8,2.3-23.6c-1.5-3.5-4,1.4-6.4,1.6
			c-2.8,0.2-8.4-3.9-4.7-6.4c2.2-1.5,5.2-0.1,7.8-1.1c3.2-1.4,7.2-6.4,10-1.7c3.3,5.5-3.1,22.2-4,28.2c-1.7,10.8-1.7,17,0.3,24.7
			c2.2,8.6,6,14.4,8,21.9c2.3,8.7,2.5,13.1,0.7,22c-2,9.3-5.9,14.9-3,24.8c3.9,13.6,12.1,38.7-10.3,40
			C-606.5-224.4-612.1-224-612.2-225.6z"/>
		<g>
			<path fill="#231F20" d="M-565-322.6c-6,3.4-1.3-21.8-1.1-24c0.7-8.7-1.9-16.7-4.2-25c-1.6-5.9-1.7-11.2-0.4-17.3
				c0.6-2.7,2.4-8.4,0.8-11c-2.3-3.7-6.8,2.1-7.4,4.1c-1.8,5.9-2.2,13.5-0.5,19.4c3.2,10.9,7,16.4,5.5,28.2c-1.2,9-6.7,17-3.9,26.1
				c1.4,4.4,3.3,8.4,2,13.3c-1.4,4.8,0.1,13.5,1.2,18.2c2.6,10.8,5.1,16,2.1,27.1c-2.6,9.6-4.6,19.9,1.3,29c0.7,1,3.7,5.3,7,7.8
				c4.1,3.2,8.8,2.6,9,1.3c1.1-6.9-5.5-6.4-9-11.3c-2.4-3.4-3.3-7.8-4.1-11.8c-1.4-7.8,1.3-17.6,3.2-25.2c2.4-9.4-1.8-18.8-1.1-28.3
				c0.5-6.7,4-12.4,9.1-15.4c2.6-1.5,6.8-2.2,12.2-2.2c8,0,15.1,5.3,15.1,17.5v56.5c0,9.3-5.3,12.9-12.6,12.9v8h57v-8
				c-9.3-0.4-12.9-4-12.9-13.7v-63.2c0-19.7-12.2-31.3-30.8-31.3c-17,0-28.2,8.7-36.6,17.9L-565-322.6z"/>
		</g>
	</g>
	<g>
		<path fill="#231F20" d="M-464.7-332.4c3.9,0.4,4.5,1.7,4.5,4.4v33.7c0,3.5-1,4-4.3,4.1c-0.3,0-0.6,0.3-0.6,0.6v2.3
			c0,0.4,0.3,0.6,0.6,0.6h16.2c0.4,0,0.6-0.3,0.6-0.6v-2.3c0-0.4-0.3-0.6-0.6-0.6c-3.3-0.1-4.3-0.7-4.3-4.1v-15.9
			c2.6-4.4,5.3-6.3,8.7-6.3c4.6,0,5.5,4,5.5,7.3v14.8c0,3.5-1,4-4.3,4.1c-0.3,0-0.6,0.3-0.6,0.6v2.3c0,0.4,0.3,0.6,0.6,0.6h16.2
			c0.4,0,0.6-0.3,0.6-0.6v-2.3c0-0.4-0.3-0.6-0.6-0.6c-3.3-0.1-4.3-0.7-4.3-4.1v-16.8c0-6.9-4.2-11.4-10.6-11.4
			c-4.5,0-7.9,1.8-11.6,6.2v-17.2c0-1,0.1-1.8,0.2-2.5c0.1-0.5,0.1-1,0.1-1.4c0-0.2-0.1-0.4-0.3-0.5c-0.2-0.1-0.4-0.2-0.6-0.1
			c-1.2,0.3-5.5,1.5-11.4,2.4c-0.3,0-0.6,0.3-0.6,0.6v1.9C-465.3-332.7-465.1-332.5-464.7-332.4z"/>
		<path fill="#231F20" d="M-423.4-316.4c3.3,0.1,4.3,1.1,4.3,4.5v14.8c0,6.9,4.3,11.6,10.6,11.6c4.5,0,7.8-1.9,11.2-6.5l-0.1,5.9
			c0,0.2,0.1,0.4,0.3,0.5c0.1,0.1,0.2,0.1,0.4,0.1c0.1,0,0.2,0,0.2,0c4.1-1.6,8.3-2.3,10.5-2.5c0.3,0,0.6-0.3,0.6-0.6v-2.3
			c0-0.3-0.3-0.6-0.6-0.6c-2.8-0.1-4-0.6-4-4.5v-19c0-1.1,0.1-2.2,0.1-3.3c0.1-1.1,0.1-2.2,0.1-3.4c0-0.2-0.1-0.4-0.3-0.5
			c-0.2-0.1-0.4-0.2-0.6-0.1l-11.6,2.9c-0.3,0.1-0.5,0.3-0.5,0.6v1.9c0,0.4,0.3,0.6,0.6,0.6c3.3,0.1,4.3,1.1,4.3,4.5v13.8
			c-2.1,4.4-4.7,6.4-8.2,6.4c-4.8,0-5.5-4.7-5.5-7.5v-16.4c0-1,0.1-2.1,0.1-3.1c0.1-1,0.1-2.1,0.1-3.2c0-0.2-0.1-0.4-0.3-0.5
			c-0.2-0.1-0.4-0.2-0.6-0.1l-11.6,2.9c-0.3,0.1-0.5,0.3-0.5,0.6v1.9C-424-316.7-423.7-316.4-423.4-316.4z"/>
		<path fill="#231F20" d="M-367.2-285.9c3.7,0,7.6-2.1,9.9-5.3l-0.1,4.7c0,0.2,0.1,0.4,0.3,0.5c0.1,0.1,0.3,0.1,0.4,0.1
			c0.1,0,0.1,0,0.2,0c3.4-1,6.7-1.7,10.3-2.2c0.3,0,0.6-0.3,0.6-0.6v-2.3c0-0.4-0.3-0.6-0.6-0.6c-3,0-3.8-0.4-3.8-3.5v-38.3
			c0-0.6,0-1.4,0.1-2c0-0.6,0.1-1.3,0.1-1.8c0-0.2-0.1-0.4-0.3-0.5c-0.2-0.1-0.4-0.2-0.6-0.1c-1.5,0.4-5.5,1.5-11.8,2.4
			c-0.3,0-0.6,0.3-0.6,0.6v1.9c0,0.3,0.3,0.6,0.6,0.6c3.4,0.2,4.8,1,4.8,4.9v7.4c-2.3-1.5-5-2.4-7.7-2.4c-8.3,0-17.2,6.5-17.2,18.5
			C-382.8-295.3-376.8-285.9-367.2-285.9z M-365.6-291.8c-6.3,0-8.5-7.3-8.5-13.5c0-7.5,3.7-12.7,8.9-12.7c3.1,0,5.6,1.8,7.3,5.1
			v15.3C-359.5-294.7-361.5-291.8-365.6-291.8z"/>
		<path fill="#231F20" d="M-341.3-285.8h2.1c0.3,0,0.5-0.2,0.6-0.4c0.4-1.3,1-1.9,1.7-1.9c0.6,0,1.3,0.3,2.2,0.8
			c1.6,0.8,3.9,1.8,7.2,1.8c9.2,0,12.5-6.6,12.5-11.1c0-7.5-6.8-9.8-12.2-11.7c-4.1-1.4-7.7-2.7-7.7-5.6c0-4,4.4-4.3,5.7-4.3
			c4.5,0,7.3,2.3,9,7.3c0.1,0.3,0.3,0.4,0.6,0.4h2.2c0.4,0,0.6-0.3,0.6-0.6v-10.6c0-0.4-0.3-0.6-0.6-0.6h-2.1
			c-0.2,0-0.5,0.1-0.6,0.3c-0.7,1.3-1,1.4-1.3,1.4c-0.4,0-1-0.2-1.8-0.5c-1.5-0.6-3.5-1.4-6.7-1.4c-5.7,0-11.8,3.2-11.8,10.4
			c0,7.6,6.2,9.5,11.6,11.2c4.2,1.3,7.9,2.5,7.9,5.9c0,3.3-2.9,5.1-5.7,5.1c-5.3,0-8.8-2.8-10.9-8.9c-0.1-0.3-0.3-0.4-0.6-0.4h-2
			c-0.4,0-0.6,0.3-0.6,0.6v12.1C-342-286.1-341.7-285.8-341.3-285.8z"/>
		<path fill="#231F20" d="M-275-304c0-9.1-6.6-18.5-17.6-18.5c-11,0-17.6,9.4-17.6,18.5s6.6,18.5,17.6,18.5
			C-281.6-285.5-275-294.9-275-304z M-292.6-289.9c-5.6,0-9-5.4-9-14.1s3.5-14.1,9-14.1c5.6,0,9,5.4,9,14.1
			C-283.6-295.3-287.1-289.9-292.6-289.9z"/>
		<path fill="#231F20" d="M-232.8-290.2c-3.3-0.1-4.3-0.7-4.3-4.1v-16.8c0-6.9-4.2-11.4-10.6-11.4c-4.5,0-7.9,1.8-11.8,6.5l0.1-5.8
			c0-0.2-0.1-0.4-0.3-0.5c-0.2-0.1-0.4-0.2-0.6-0.1c-3.5,1.3-7.6,2.4-10.8,2.9c-0.3,0.1-0.5,0.3-0.5,0.6v1.9c0,0.4,0.3,0.6,0.6,0.6
			c3,0,4.2,1.3,4.2,4.3v17.8c0,3.5-1,4-4.3,4.1c-0.3,0-0.6,0.3-0.6,0.6v2.3c0,0.4,0.3,0.6,0.6,0.6h16.2c0.4,0,0.6-0.3,0.6-0.6v-2.3
			c0-0.4-0.3-0.6-0.6-0.6c-3.3-0.1-4.3-0.7-4.3-4.1v-15.9c2.6-4.4,5.3-6.3,8.7-6.3c4.6,0,5.5,4,5.5,7.3v14.8c0,3.5-1,4-4.3,4.1
			c-0.3,0-0.6,0.3-0.6,0.6v2.3c0,0.4,0.3,0.6,0.6,0.6h16.2c0.4,0,0.6-0.3,0.6-0.6v-2.3C-232.2-289.9-232.5-290.2-232.8-290.2z"/>
		<path fill="#231F20" d="M-410.7-260.5h-12.9c-0.4,0-0.6,0.3-0.6,0.6v2.3c0,0.4,0.3,0.6,0.6,0.6c1.4,0,3.7,0.3,3.7,2.3
			c0,1.1-0.6,2.6-1,3.7l-5.9,14.5l-6.3-16l-0.1-0.3c-0.3-0.8-0.5-1.5-0.5-2.3c0-0.5,0-1.8,3.3-1.9c0.3,0,0.6-0.3,0.6-0.6v-2.3
			c0-0.4-0.3-0.6-0.6-0.6h-16.1c-0.4,0-0.6,0.3-0.6,0.6v2.3c0,0.4,0.3,0.6,0.6,0.6c2.8,0.1,4.2,0.6,5.7,5.2l-6.4,15.3l-6.5-16.5
			c-0.3-0.7-0.6-1.5-0.6-2.4c0-0.4,0-1.6,3.1-1.6c0.4,0,0.6-0.3,0.6-0.6v-2.3c0-0.4-0.3-0.6-0.6-0.6h-14.9c-0.4,0-0.6,0.3-0.6,0.6
			v2.3c0,0.3,0.2,0.6,0.6,0.6c1.9,0.2,2.9,0.4,4.3,3.9l11.3,27.6c0.1,0.2,0.3,0.4,0.6,0.4h2.3c0.3,0,0.5-0.2,0.6-0.4l8.7-20.4
			l8.3,20.4c0.1,0.2,0.3,0.4,0.6,0.4h2.2c0.3,0,0.5-0.2,0.6-0.4l11.9-27.2c1.8-4.2,2.3-4.3,4.3-4.3c0.4,0,0.6-0.3,0.6-0.6v-2.3
			C-410-260.2-410.3-260.5-410.7-260.5z"/>
		<path fill="#231F20" d="M-391.5-261.5c-11,0-17.6,9.4-17.6,18.5s6.6,18.5,17.6,18.5c11,0,17.6-9.4,17.6-18.5
			S-380.5-261.5-391.5-261.5z M-391.5-228.9c-5.6,0-9-5.4-9-14.1c0-8.7,3.5-14.1,9-14.1c5.6,0,9,5.4,9,14.1
			C-382.5-234.3-386-228.9-391.5-228.9z"/>
		<path fill="#231F20" d="M-352.1-261.5c-11,0-17.6,9.4-17.6,18.5s6.6,18.5,17.6,18.5c11,0,17.6-9.4,17.6-18.5
			S-341.1-261.5-352.1-261.5z M-352.1-228.9c-5.6,0-9-5.4-9-14.1c0-8.7,3.5-14.1,9-14.1c5.6,0,9,5.4,9,14.1
			C-343.1-234.3-346.6-228.9-352.1-228.9z"/>
		<path fill="#231F20" d="M-293.7-230.8c-3,0-3.8-0.4-3.8-3.5v-38.3c0-0.6,0-1.4,0.1-2c0-0.6,0.1-1.3,0.1-1.8c0-0.2-0.1-0.4-0.3-0.5
			c-0.2-0.1-0.4-0.2-0.6-0.1c-1.5,0.4-5.5,1.5-11.8,2.4c-0.3,0-0.6,0.3-0.6,0.6v1.9c0,0.3,0.3,0.6,0.6,0.6c3.4,0.2,4.8,1,4.8,4.9
			v7.4c-2.3-1.5-5-2.4-7.7-2.4c-8.3,0-17.2,6.5-17.2,18.5c0,8.7,6,18.1,15.6,18.1c3.7,0,7.6-2.1,9.9-5.3l-0.1,4.7
			c0,0.2,0.1,0.4,0.3,0.5c0.1,0.1,0.3,0.1,0.4,0.1c0.1,0,0.1,0,0.2,0c3.4-1,6.7-1.7,10.3-2.2c0.3,0,0.6-0.3,0.6-0.6v-2.3
			C-293.1-230.5-293.4-230.8-293.7-230.8z M-313-230.8c-6.3,0-8.5-7.3-8.5-13.5c0-7.5,3.7-12.7,8.9-12.7c3.1,0,5.6,1.8,7.3,5.1v15.3
			C-306.9-233.7-308.9-230.8-313-230.8z"/>
		<path fill="#231F20" d="M-274.5-247.4c-4.1-1.4-7.7-2.7-7.7-5.5c0-4,4.4-4.3,5.7-4.3c4.5,0,7.3,2.3,9,7.3c0.1,0.3,0.3,0.4,0.6,0.4
			h2.2c0.4,0,0.6-0.3,0.6-0.6v-10.6c0-0.4-0.3-0.6-0.6-0.6h-2.1c-0.2,0-0.5,0.1-0.6,0.3c-0.7,1.3-1,1.4-1.3,1.4
			c-0.4,0-1-0.2-1.8-0.5c-1.5-0.6-3.5-1.4-6.7-1.4c-5.7,0-11.8,3.2-11.8,10.4c0,7.6,6.2,9.5,11.6,11.2c4.2,1.3,7.9,2.5,7.9,5.9
			c0,3.3-2.9,5.1-5.7,5.1c-5.3,0-8.8-2.8-10.9-8.9c-0.1-0.3-0.3-0.4-0.6-0.4h-2c-0.4,0-0.6,0.3-0.6,0.6v12.1c0,0.4,0.3,0.6,0.6,0.6
			h2.1c0.3,0,0.5-0.2,0.6-0.4c0.4-1.3,1-1.9,1.7-1.9c0.6,0,1.3,0.3,2.2,0.8c1.6,0.8,3.9,1.8,7.2,1.8c9.2,0,12.5-6.6,12.5-11.1
			C-262.3-243.1-269.1-245.5-274.5-247.4z"/>
	</g>
</g>
<g>
	<g>
		<path fill="#231F20" d="M-474.4-48.9c-0.3-1.8-1.3-4.8,0.5-6.1c0.5-0.3,1.4-0.2,1.2,0.5c-0.3,0.9-1.2,1.2-1,2.3
			c0.4,2,1.3,3.8,1.5,5.8c0.2,2.1-0.2,4.1-0.4,6.1c-0.2,2.1-0.1,4.5,0.3,6.6c0.4,2.1,0.9,3.8,1.3,5.9c0.1,0.7,0.1,1.2-0.2,1.7
			c-0.4,0.9-0.8,0.7-0.6,0c0.3-1.2,0-2.2-0.4-2.2c-0.4,0-0.6,1.6-0.7,1.8c-0.1,1,0.4,1.9,0.7,2.9c0.3,1,0.5,2.4,0.4,3.5
			c0,1.6,0,3.7,1.4,4.8c0.7,0.6,0.2,1.2-0.4,1.4c-0.7,0.2-2.7,0.3-3.3-0.4c-0.2-0.3-0.3-0.4-0.2-0.8c0.8-3.1,0.9-4.3,0.5-6.5
			c-0.2-1.1-0.6-2.1-0.7-3.2c-0.2-1.4,0.2-2.6,0.6-3.9c0.8-2.4,0.4-5.3-0.4-7.6c-0.8-2.2-1.3-3.8-1.4-5c-0.2-1.8,0-2.7,0.1-3.4
			c0.1-0.7,1.2-1.2,0.9,0c-0.2,0.9-0.1,3.4,0.6,3.1c0.4-0.2,0.6-0.8,0.6-2c0-1.2-0.3-2.2-0.4-2.9C-473.9-47-474.3-48.5-474.4-48.9z"
			/>
		<path fill="#231F20" d="M-479.9-13.7c-0.1-1.2,1.3-1.1,1.8-1.2c1.6-0.3,1.2-3.4,1.1-4.5c-0.2-2.1-0.9-5.1-0.6-7.2
			c0.3-2.1,0.7-3.4,0.8-5.5c0.1-2.2-0.7-4.5-1.3-6.6c-0.6-2.1-0.7-4-0.2-6c0.3-1.5,1.1-4.3,0.5-5.7c-0.3-0.8-1,0.3-1.5,0.4
			c-0.7,0-2-0.9-1.1-1.5c0.5-0.4,1.3,0,1.9-0.3c0.8-0.3,1.7-1.5,2.4-0.4c0.8,1.3-0.7,5.3-1,6.8c-0.4,2.6-0.4,4.1,0.1,5.9
			c0.5,2.1,1.4,3.5,1.9,5.2c0.6,2.1,0.6,3.2,0.2,5.3c-0.5,2.2-1.4,3.6-0.7,6c0.9,3.3,2.9,9.3-2.5,9.6
			C-478.6-13.5-479.9-13.4-479.9-13.7z"/>
		<g>
			<path fill="#231F20" d="M-468.6-37c-1.4,0.8-0.3-5.2-0.3-5.8c0.2-2.1-0.5-4-1-6c-0.4-1.4-0.4-2.7-0.1-4.2c0.1-0.6,0.6-2,0.2-2.6
				c-0.6-0.9-1.6,0.5-1.8,1c-0.4,1.4-0.5,3.2-0.1,4.6c0.8,2.6,1.7,3.9,1.3,6.8c-0.3,2.2-1.6,4.1-0.9,6.3c0.3,1.1,0.8,2,0.5,3.2
				c-0.3,1.2,0,3.2,0.3,4.4c0.6,2.6,1.2,3.8,0.5,6.5c-0.6,2.3-1.1,4.8,0.3,7c0.2,0.2,0.9,1.3,1.7,1.9c1,0.8,2.1,0.6,2.2,0.3
				c0.3-1.6-1.3-1.5-2.2-2.7c-0.6-0.8-0.8-1.9-1-2.8c-0.3-1.9,0.3-4.2,0.8-6c0.6-2.3-0.4-4.5-0.3-6.8c0.1-1.6,1-3,2.2-3.7
				c0.6-0.4,1.6-0.5,2.9-0.5c1.9,0,3.6,1.3,3.6,4.2v13.6c0,2.2-1.3,3.1-3,3.1v1.9h13.7v-1.9c-2.2-0.1-3.1-1-3.1-3.3V-34
				c0-4.7-2.9-7.5-7.4-7.5c-4.1,0-6.8,2.1-8.8,4.3L-468.6-37z"/>
		</g>
	</g>
	<g>
		<path fill="#231F20" d="M-444.5-39.4c0.9,0.1,1.1,0.4,1.1,1.1v8.1c0,0.8-0.2,1-1,1c-0.1,0-0.1,0.1-0.1,0.2v0.5
			c0,0.1,0.1,0.2,0.2,0.2h3.9c0.1,0,0.2-0.1,0.2-0.2v-0.5c0-0.1-0.1-0.2-0.1-0.2c-0.8,0-1-0.2-1-1v-3.8c0.6-1.1,1.3-1.5,2.1-1.5
			c1.1,0,1.3,1,1.3,1.8v3.5c0,0.8-0.2,1-1,1c-0.1,0-0.1,0.1-0.1,0.2v0.5c0,0.1,0.1,0.2,0.2,0.2h3.9c0.1,0,0.2-0.1,0.2-0.2v-0.5
			c0-0.1-0.1-0.2-0.1-0.2c-0.8,0-1-0.2-1-1v-4c0-1.7-1-2.7-2.6-2.7c-1.1,0-1.9,0.4-2.8,1.5v-4.1c0-0.2,0-0.4,0-0.6
			c0-0.1,0-0.2,0-0.3c0,0,0-0.1-0.1-0.1c0,0-0.1,0-0.1,0c-0.3,0.1-1.3,0.4-2.7,0.6c-0.1,0-0.1,0.1-0.1,0.2v0.4
			C-444.7-39.5-444.6-39.4-444.5-39.4z"/>
		<path fill="#231F20" d="M-434.6-35.6c0.8,0,1,0.3,1,1.1v3.5c0,1.7,1,2.8,2.6,2.8c1.1,0,1.9-0.5,2.7-1.6l0,1.4c0,0.1,0,0.1,0.1,0.1
			c0,0,0.1,0,0.1,0c0,0,0,0,0.1,0c1-0.4,2-0.5,2.5-0.6c0.1,0,0.1-0.1,0.1-0.2v-0.5c0-0.1-0.1-0.2-0.1-0.2c-0.7,0-1-0.1-1-1.1v-4.6
			c0-0.3,0-0.5,0-0.8c0-0.3,0-0.5,0-0.8c0,0,0-0.1-0.1-0.1c0,0-0.1,0-0.1,0l-2.8,0.7c-0.1,0-0.1,0.1-0.1,0.2v0.4
			c0,0.1,0.1,0.2,0.2,0.2c0.8,0,1,0.3,1,1.1v3.3c-0.5,1.1-1.1,1.5-2,1.5c-1.2,0-1.3-1.1-1.3-1.8v-3.9c0-0.2,0-0.5,0-0.7
			c0-0.3,0-0.5,0-0.8c0,0,0-0.1-0.1-0.1c0,0-0.1,0-0.1,0l-2.8,0.7c-0.1,0-0.1,0.1-0.1,0.2v0.4C-434.7-35.6-434.7-35.6-434.6-35.6z"
			/>
		<path fill="#231F20" d="M-421.1-28.2c0.9,0,1.8-0.5,2.4-1.3l0,1.1c0,0,0,0.1,0.1,0.1c0,0,0.1,0,0.1,0c0,0,0,0,0,0
			c0.8-0.2,1.6-0.4,2.5-0.5c0.1,0,0.1-0.1,0.1-0.2v-0.5c0-0.1-0.1-0.2-0.2-0.2c-0.7,0-0.9-0.1-0.9-0.8v-9.2c0-0.2,0-0.3,0-0.5
			c0-0.2,0-0.3,0-0.4c0,0,0-0.1-0.1-0.1c0,0-0.1,0-0.1,0c-0.4,0.1-1.3,0.4-2.8,0.6c-0.1,0-0.1,0.1-0.1,0.2v0.4
			c0,0.1,0.1,0.2,0.1,0.2c0.8,0.1,1.1,0.2,1.1,1.2v1.8c-0.5-0.4-1.2-0.6-1.9-0.6c-2,0-4.1,1.6-4.1,4.4
			C-424.8-30.5-423.4-28.2-421.1-28.2z M-420.7-29.6c-1.5,0-2-1.8-2-3.2c0-1.8,0.9-3.1,2.1-3.1c0.7,0,1.3,0.4,1.8,1.2v3.7
			C-419.3-30.3-419.7-29.6-420.7-29.6z"/>
		<path fill="#231F20" d="M-414.9-28.2h0.5c0.1,0,0.1,0,0.1-0.1c0.1-0.3,0.2-0.5,0.4-0.5c0.1,0,0.3,0.1,0.5,0.2
			c0.4,0.2,0.9,0.4,1.7,0.4c2.2,0,3-1.6,3-2.7c0-1.8-1.6-2.4-2.9-2.8c-1-0.3-1.9-0.6-1.9-1.3c0-1,1.1-1,1.4-1c1.1,0,1.8,0.5,2.2,1.8
			c0,0.1,0.1,0.1,0.1,0.1h0.5c0.1,0,0.2-0.1,0.2-0.2v-2.5c0-0.1-0.1-0.2-0.2-0.2h-0.5c-0.1,0-0.1,0-0.1,0.1
			c-0.2,0.3-0.2,0.3-0.3,0.3c-0.1,0-0.2-0.1-0.4-0.1c-0.4-0.1-0.9-0.3-1.6-0.3c-1.4,0-2.8,0.8-2.8,2.5c0,1.8,1.5,2.3,2.8,2.7
			c1,0.3,1.9,0.6,1.9,1.4c0,0.8-0.7,1.2-1.4,1.2c-1.3,0-2.1-0.7-2.6-2.1c0-0.1-0.1-0.1-0.1-0.1h-0.5c-0.1,0-0.2,0.1-0.2,0.2v2.9
			C-415-28.3-415-28.2-414.9-28.2z"/>
		<path fill="#231F20" d="M-399-32.6c0-2.2-1.6-4.4-4.2-4.4s-4.2,2.3-4.2,4.4c0,2.2,1.6,4.4,4.2,4.4S-399-30.4-399-32.6z
			 M-403.2-29.2c-1.3,0-2.2-1.3-2.2-3.4s0.8-3.4,2.2-3.4c1.3,0,2.2,1.3,2.2,3.4S-401.9-29.2-403.2-29.2z"/>
		<path fill="#231F20" d="M-388.8-29.3c-0.8,0-1-0.2-1-1v-4c0-1.7-1-2.7-2.6-2.7c-1.1,0-1.9,0.4-2.8,1.6l0-1.4c0-0.1,0-0.1-0.1-0.1
			c0,0-0.1,0-0.1,0c-0.9,0.3-1.8,0.6-2.6,0.7c-0.1,0-0.1,0.1-0.1,0.2v0.4c0,0.1,0.1,0.2,0.2,0.2c0.7,0,1,0.3,1,1v4.3
			c0,0.8-0.2,1-1,1c-0.1,0-0.1,0.1-0.1,0.2v0.5c0,0.1,0.1,0.2,0.2,0.2h3.9c0.1,0,0.2-0.1,0.2-0.2v-0.5c0-0.1-0.1-0.2-0.1-0.2
			c-0.8,0-1-0.2-1-1v-3.8c0.6-1.1,1.3-1.5,2.1-1.5c1.1,0,1.3,1,1.3,1.8v3.5c0,0.8-0.2,1-1,1c-0.1,0-0.1,0.1-0.1,0.2v0.5
			c0,0.1,0.1,0.2,0.2,0.2h3.9c0.1,0,0.2-0.1,0.2-0.2v-0.5C-388.7-29.2-388.8-29.2-388.8-29.3z"/>
		<path fill="#231F20" d="M-431.5-22.1h-3.1c-0.1,0-0.2,0.1-0.2,0.2v0.5c0,0.1,0.1,0.2,0.2,0.2c0.3,0,0.9,0.1,0.9,0.6
			c0,0.3-0.1,0.6-0.2,0.9l-1.4,3.5l-1.5-3.8l0-0.1c-0.1-0.2-0.1-0.3-0.1-0.6c0-0.1,0-0.4,0.8-0.5c0.1,0,0.1-0.1,0.1-0.2V-22
			c0-0.1-0.1-0.2-0.2-0.2h-3.9c-0.1,0-0.2,0.1-0.2,0.2v0.5c0,0.1,0.1,0.2,0.1,0.2c0.7,0,1,0.2,1.4,1.3l-1.5,3.7l-1.6-4
			c-0.1-0.2-0.1-0.4-0.1-0.6c0-0.1,0-0.4,0.7-0.4c0.1,0,0.2-0.1,0.2-0.2V-22c0-0.1-0.1-0.2-0.2-0.2h-3.6c-0.1,0-0.2,0.1-0.2,0.2v0.5
			c0,0.1,0.1,0.1,0.1,0.2c0.4,0.1,0.7,0.1,1,0.9l2.7,6.6c0,0.1,0.1,0.1,0.1,0.1h0.5c0.1,0,0.1,0,0.1-0.1l2.1-4.9l2,4.9
			c0,0.1,0.1,0.1,0.1,0.1h0.5c0.1,0,0.1,0,0.1-0.1l2.8-6.5c0.4-1,0.5-1,1-1c0.1,0,0.2-0.1,0.2-0.2V-22
			C-431.4-22.1-431.4-22.1-431.5-22.1z"/>
		<path fill="#231F20" d="M-426.9-22.4c-2.6,0-4.2,2.3-4.2,4.4s1.6,4.4,4.2,4.4c2.6,0,4.2-2.3,4.2-4.4
			C-422.7-20.1-424.3-22.4-426.9-22.4z M-426.9-14.5c-1.3,0-2.2-1.3-2.2-3.4s0.8-3.4,2.2-3.4c1.3,0,2.2,1.3,2.2,3.4
			C-424.8-15.8-425.6-14.5-426.9-14.5z"/>
		<path fill="#231F20" d="M-417.5-22.4c-2.6,0-4.2,2.3-4.2,4.4s1.6,4.4,4.2,4.4c2.6,0,4.2-2.3,4.2-4.4
			C-413.2-20.1-414.8-22.4-417.5-22.4z M-417.5-14.5c-1.3,0-2.2-1.3-2.2-3.4s0.8-3.4,2.2-3.4c1.3,0,2.2,1.3,2.2,3.4
			C-415.3-15.8-416.1-14.5-417.5-14.5z"/>
		<path fill="#231F20" d="M-403.5-15c-0.7,0-0.9-0.1-0.9-0.8V-25c0-0.2,0-0.3,0-0.5c0-0.2,0-0.3,0-0.4c0,0,0-0.1-0.1-0.1
			s-0.1,0-0.1,0c-0.4,0.1-1.3,0.4-2.8,0.6c-0.1,0-0.1,0.1-0.1,0.2v0.4c0,0.1,0.1,0.1,0.1,0.2c0.8,0.1,1.1,0.2,1.1,1.2v1.8
			c-0.5-0.4-1.2-0.6-1.9-0.6c-2,0-4.1,1.6-4.1,4.4c0,2.1,1.4,4.3,3.7,4.3c0.9,0,1.8-0.5,2.4-1.3l0,1.1c0,0.1,0,0.1,0.1,0.1
			c0,0,0.1,0,0.1,0c0,0,0,0,0,0c0.8-0.2,1.6-0.4,2.5-0.5c0.1,0,0.1-0.1,0.1-0.2v-0.5C-403.3-14.9-403.4-15-403.5-15z M-408.1-15
			c-1.5,0-2.1-1.8-2.1-3.2c0-1.8,0.9-3.1,2.1-3.1c0.7,0,1.3,0.4,1.8,1.2v3.7C-406.6-15.7-407.1-15-408.1-15z"/>
		<path fill="#231F20" d="M-398.9-19c-1-0.3-1.9-0.6-1.9-1.3c0-1,1.1-1,1.4-1c1.1,0,1.8,0.5,2.2,1.8c0,0.1,0.1,0.1,0.1,0.1h0.5
			c0.1,0,0.2-0.1,0.2-0.2v-2.5c0-0.1-0.1-0.2-0.2-0.2h-0.5c-0.1,0-0.1,0-0.1,0.1c-0.2,0.3-0.2,0.3-0.3,0.3c-0.1,0-0.2-0.1-0.4-0.1
			c-0.4-0.1-0.9-0.3-1.6-0.3c-1.4,0-2.8,0.8-2.8,2.5c0,1.8,1.5,2.3,2.8,2.7c1,0.3,1.9,0.6,1.9,1.4c0,0.8-0.7,1.2-1.4,1.2
			c-1.3,0-2.1-0.7-2.6-2.1c0-0.1-0.1-0.1-0.1-0.1h-0.5c-0.1,0-0.2,0.1-0.2,0.2v2.9c0,0.1,0.1,0.2,0.2,0.2h0.5c0.1,0,0.1,0,0.1-0.1
			c0.1-0.3,0.2-0.5,0.4-0.5c0.1,0,0.3,0.1,0.5,0.2c0.4,0.2,0.9,0.4,1.7,0.4c2.2,0,3-1.6,3-2.7C-395.9-18-397.5-18.5-398.9-19z"/>
	</g>
</g>
<g>
	<g>
		<path fill="#FFFFFF" d="M6.2,7C5.9,5.3,5,2.2,6.7,1c0.5-0.4,1.4-0.2,1.2,0.5c-0.3,0.9-1.2,1.2-1,2.3c0.4,2,1.3,3.8,1.5,5.8
			c0.2,2.1-0.2,4.1-0.4,6.1c-0.2,2.1-0.1,4.5,0.3,6.6c0.4,2.1,0.9,3.8,1.3,5.9C9.8,29,9.7,29.5,9.4,30c-0.4,0.9-0.8,0.7-0.6,0
			c0.3-1.2,0-2.2-0.4-2.2c-0.4,0-0.6,1.6-0.7,1.8c-0.1,1,0.4,1.9,0.7,2.9c0.3,1,0.5,2.4,0.4,3.5c0,1.6,0,3.7,1.4,4.8
			c0.7,0.6,0.2,1.2-0.4,1.4c-0.7,0.2-2.7,0.3-3.3-0.4c-0.2-0.3-0.3-0.4-0.2-0.8c0.8-3.1,0.9-4.3,0.5-6.5c-0.2-1.1-0.6-2.1-0.7-3.2
			c-0.2-1.4,0.2-2.6,0.6-3.9c0.8-2.4,0.4-5.3-0.4-7.6c-0.8-2.2-1.3-3.8-1.4-5c-0.2-1.8,0-2.7,0.1-3.4c0.1-0.7,1.2-1.2,0.9,0.1
			c-0.2,0.9-0.1,3.4,0.6,3.1c0.4-0.2,0.6-0.8,0.6-2c0-1.2-0.3-2.2-0.4-2.9C6.7,8.9,6.3,7.4,6.2,7z"/>
		<path fill="#FFFFFF" d="M0.7,42.1C0.7,41,2,41,2.5,40.9c1.6-0.3,1.2-3.4,1.1-4.5c-0.2-2.1-0.9-5.1-0.6-7.2
			c0.3-2.1,0.7-3.4,0.8-5.5c0.1-2.2-0.7-4.5-1.3-6.6c-0.6-2.1-0.7-4-0.2-6C2.7,9.7,3.5,6.8,3,5.5C2.6,4.6,2,5.8,1.4,5.8
			c-0.7,0-2-0.9-1.1-1.5c0.5-0.4,1.3,0,1.9-0.3c0.8-0.3,1.7-1.5,2.4-0.4c0.8,1.3-0.7,5.3-1,6.8c-0.4,2.6-0.4,4.1,0.1,5.9
			c0.5,2.1,1.4,3.5,1.9,5.2c0.6,2.1,0.6,3.2,0.2,5.3c-0.5,2.2-1.4,3.6-0.7,6c0.9,3.3,2.9,9.3-2.5,9.6C2.1,42.4,0.7,42.5,0.7,42.1z"
			/>
		<g>
			<path fill="#FFFFFF" d="M12,18.8c-1.4,0.8-0.3-5.2-0.3-5.8c0.2-2.1-0.5-4-1-6c-0.4-1.4-0.4-2.7-0.1-4.2c0.1-0.6,0.6-2,0.2-2.6
				c-0.6-0.9-1.6,0.5-1.8,1C8.6,2.7,8.5,4.5,8.9,5.9c0.8,2.6,1.7,3.9,1.3,6.8C10,14.9,8.6,16.8,9.3,19c0.3,1.1,0.8,2,0.5,3.2
				c-0.3,1.2,0,3.2,0.3,4.4c0.6,2.6,1.2,3.8,0.5,6.5c-0.6,2.3-1.1,4.8,0.3,7c0.2,0.2,0.9,1.3,1.7,1.9c1,0.8,2.1,0.6,2.2,0.3
				c0.3-1.6-1.3-1.5-2.2-2.7c-0.6-0.8-0.8-1.9-1-2.8c-0.3-1.9,0.3-4.2,0.8-6c0.6-2.3-0.4-4.5-0.3-6.8c0.1-1.6,1-3,2.2-3.7
				c0.6-0.4,1.6-0.5,2.9-0.5c1.9,0,3.6,1.3,3.6,4.2v13.6c0,2.2-1.3,3.1-3,3.1v1.9h13.7v-1.9c-2.2-0.1-3.1-1-3.1-3.3V21.9
				c0-4.7-2.9-7.5-7.4-7.5c-4.1,0-6.8,2.1-8.8,4.3L12,18.8z"/>
		</g>
	</g>
	<g>
		<path fill="#FFFFFF" d="M36.1,16.5c0.9,0.1,1.1,0.4,1.1,1.1v8.1c0,0.8-0.2,1-1,1c-0.1,0-0.2,0.1-0.2,0.2v0.5
			c0,0.1,0.1,0.2,0.2,0.2h3.9c0.1,0,0.2-0.1,0.2-0.2v-0.5c0-0.1-0.1-0.2-0.2-0.2c-0.8,0-1-0.2-1-1v-3.8c0.6-1.1,1.3-1.5,2.1-1.5
			c1.1,0,1.3,1,1.3,1.8v3.5c0,0.8-0.2,1-1,1c-0.1,0-0.2,0.1-0.2,0.2v0.5c0,0.1,0.1,0.2,0.2,0.2h3.9c0.1,0,0.2-0.1,0.2-0.2v-0.5
			c0-0.1-0.1-0.2-0.2-0.2c-0.8,0-1-0.2-1-1v-4c0-1.7-1-2.7-2.6-2.7c-1.1,0-1.9,0.4-2.8,1.5v-4.1c0-0.2,0-0.4,0-0.6
			c0-0.1,0-0.2,0-0.3c0,0,0-0.1-0.1-0.1c0,0-0.1,0-0.1,0c-0.3,0.1-1.3,0.4-2.7,0.6c-0.1,0-0.1,0.1-0.1,0.2v0.4
			C36,16.4,36,16.5,36.1,16.5z"/>
		<path fill="#FFFFFF" d="M46,20.3c0.8,0,1,0.3,1,1.1V25c0,1.7,1,2.8,2.6,2.8c1.1,0,1.9-0.5,2.7-1.6l0,1.4c0,0.1,0,0.1,0.1,0.1
			c0,0,0.1,0,0.1,0c0,0,0,0,0.1,0c1-0.4,2-0.5,2.5-0.6c0.1,0,0.1-0.1,0.1-0.2v-0.5c0-0.1-0.1-0.2-0.2-0.2c-0.7,0-1-0.1-1-1.1v-4.6
			c0-0.3,0-0.5,0-0.8c0-0.3,0-0.5,0-0.8c0,0,0-0.1-0.1-0.1c0,0-0.1,0-0.1,0l-2.8,0.7c-0.1,0-0.1,0.1-0.1,0.1v0.4
			c0,0.1,0.1,0.2,0.2,0.2c0.8,0,1,0.3,1,1.1v3.3c-0.5,1.1-1.1,1.5-2,1.5c-1.2,0-1.3-1.1-1.3-1.8v-3.9c0-0.2,0-0.5,0-0.7
			c0-0.3,0-0.5,0-0.8c0,0,0-0.1-0.1-0.1c0,0-0.1,0-0.1,0L46,19.6c-0.1,0-0.1,0.1-0.1,0.1v0.4C45.9,20.3,46,20.3,46,20.3z"/>
		<path fill="#FFFFFF" d="M59.5,27.6c0.9,0,1.8-0.5,2.4-1.3l0,1.1c0,0,0,0.1,0.1,0.1c0,0,0.1,0,0.1,0c0,0,0,0,0,0
			c0.8-0.2,1.6-0.4,2.5-0.5c0.1,0,0.1-0.1,0.1-0.2v-0.5c0-0.1-0.1-0.2-0.2-0.2c-0.7,0-0.9-0.1-0.9-0.8v-9.2c0-0.2,0-0.3,0-0.5
			c0-0.2,0-0.3,0-0.4c0,0,0-0.1-0.1-0.1c0,0-0.1,0-0.1,0c-0.4,0.1-1.3,0.4-2.8,0.6c-0.1,0-0.1,0.1-0.1,0.2v0.4
			c0,0.1,0.1,0.1,0.1,0.2c0.8,0.1,1.2,0.2,1.2,1.2v1.8c-0.5-0.4-1.2-0.6-1.9-0.6c-2,0-4.1,1.6-4.1,4.4
			C55.8,25.4,57.2,27.6,59.5,27.6z M59.9,26.2c-1.5,0-2-1.8-2-3.2c0-1.8,0.9-3.1,2.1-3.1c0.7,0,1.3,0.4,1.8,1.2v3.7
			C61.4,25.6,60.9,26.2,59.9,26.2z"/>
		<path fill="#FFFFFF" d="M65.8,27.7h0.5c0.1,0,0.1,0,0.1-0.1c0.1-0.3,0.2-0.5,0.4-0.5c0.1,0,0.3,0.1,0.5,0.2
			c0.4,0.2,0.9,0.4,1.7,0.4c2.2,0,3-1.6,3-2.7c0-1.8-1.6-2.4-2.9-2.8c-1-0.3-1.9-0.6-1.9-1.3c0-1,1.1-1,1.4-1c1.1,0,1.8,0.5,2.2,1.8
			c0,0.1,0.1,0.1,0.1,0.1h0.5c0.1,0,0.2-0.1,0.2-0.2v-2.5c0-0.1-0.1-0.2-0.2-0.2H71c-0.1,0-0.1,0-0.1,0.1c-0.2,0.3-0.2,0.3-0.3,0.3
			c-0.1,0-0.2-0.1-0.4-0.1c-0.4-0.1-0.9-0.4-1.6-0.4c-1.4,0-2.8,0.8-2.8,2.5c0,1.8,1.5,2.3,2.8,2.7c1,0.3,1.9,0.6,1.9,1.4
			c0,0.8-0.7,1.2-1.4,1.2c-1.3,0-2.1-0.7-2.6-2.1c0-0.1-0.1-0.1-0.1-0.1h-0.5c-0.1,0-0.2,0.1-0.2,0.2v2.9
			C65.6,27.6,65.7,27.7,65.8,27.7z"/>
		<path fill="#FFFFFF" d="M81.7,23.3c0-2.2-1.6-4.4-4.2-4.4s-4.2,2.3-4.2,4.4s1.6,4.4,4.2,4.4S81.7,25.5,81.7,23.3z M77.4,26.7
			c-1.3,0-2.2-1.3-2.2-3.4s0.8-3.4,2.2-3.4c1.3,0,2.2,1.3,2.2,3.4S78.8,26.7,77.4,26.7z"/>
		<path fill="#FFFFFF" d="M91.8,26.6c-0.8,0-1-0.2-1-1v-4c0-1.7-1-2.7-2.6-2.7c-1.1,0-1.9,0.4-2.8,1.6l0-1.4c0-0.1,0-0.1-0.1-0.1
			c0,0-0.1,0-0.1,0c-0.9,0.3-1.8,0.6-2.6,0.7c-0.1,0-0.1,0.1-0.1,0.2v0.4c0,0.1,0.1,0.2,0.2,0.2c0.7,0,1,0.3,1,1v4.3
			c0,0.8-0.2,1-1,1c-0.1,0-0.2,0.1-0.2,0.2v0.5c0,0.1,0.1,0.2,0.2,0.2h3.9c0.1,0,0.2-0.1,0.2-0.2v-0.5c0-0.1-0.1-0.2-0.2-0.2
			c-0.8,0-1-0.2-1-1v-3.8c0.6-1.1,1.3-1.5,2.1-1.5c1.1,0,1.3,1,1.3,1.8v3.5c0,0.8-0.2,1-1,1c-0.1,0-0.2,0.1-0.2,0.2v0.5
			c0,0.1,0.1,0.2,0.2,0.2h3.9c0.1,0,0.2-0.1,0.2-0.2v-0.5C92,26.7,91.9,26.6,91.8,26.6z"/>
		<path fill="#FFFFFF" d="M49.1,33.8H46c-0.1,0-0.2,0.1-0.2,0.2v0.5c0,0.1,0.1,0.2,0.2,0.2c0.3,0,0.9,0.1,0.9,0.6
			c0,0.3-0.1,0.6-0.2,0.9l-1.4,3.5l-1.5-3.8l0-0.1c-0.1-0.2-0.1-0.3-0.1-0.6c0-0.1,0-0.4,0.8-0.5c0.1,0,0.1-0.1,0.1-0.2v-0.5
			c0-0.1-0.1-0.2-0.2-0.2h-3.9c-0.1,0-0.2,0.1-0.2,0.2v0.5c0,0.1,0.1,0.2,0.1,0.2c0.7,0,1,0.2,1.4,1.3l-1.5,3.7l-1.6-4
			c-0.1-0.2-0.1-0.4-0.1-0.6c0-0.1,0-0.4,0.7-0.4c0.1,0,0.2-0.1,0.2-0.2v-0.5c0-0.1-0.1-0.2-0.2-0.2h-3.6c-0.1,0-0.2,0.1-0.2,0.2
			v0.5c0,0.1,0.1,0.1,0.1,0.2c0.4,0.1,0.7,0.1,1,0.9l2.7,6.6c0,0.1,0.1,0.1,0.1,0.1h0.5c0.1,0,0.1,0,0.1-0.1l2.1-4.9l2,4.9
			c0,0.1,0.1,0.1,0.1,0.1h0.5c0.1,0,0.1,0,0.1-0.1l2.8-6.5c0.4-1,0.5-1,1-1c0.1,0,0.2-0.1,0.2-0.2v-0.5
			C49.3,33.8,49.2,33.8,49.1,33.8z"/>
		<path fill="#FFFFFF" d="M53.7,33.5c-2.6,0-4.2,2.3-4.2,4.4s1.6,4.4,4.2,4.4c2.6,0,4.2-2.3,4.2-4.4C57.9,35.8,56.3,33.5,53.7,33.5z
			 M53.7,41.3c-1.3,0-2.2-1.3-2.2-3.4s0.8-3.4,2.2-3.4s2.2,1.3,2.2,3.4S55,41.3,53.7,41.3z"/>
		<path fill="#FFFFFF" d="M63.2,33.5c-2.7,0-4.2,2.3-4.2,4.4s1.6,4.4,4.2,4.4c2.6,0,4.2-2.3,4.2-4.4C67.4,35.8,65.8,33.5,63.2,33.5z
			 M63.2,41.3c-1.3,0-2.2-1.3-2.2-3.4s0.8-3.4,2.2-3.4c1.3,0,2.2,1.3,2.2,3.4C65.3,40,64.5,41.3,63.2,41.3z"/>
		<path fill="#FFFFFF" d="M77.2,40.9c-0.7,0-0.9-0.1-0.9-0.8v-9.2c0-0.2,0-0.3,0-0.5c0-0.2,0-0.3,0-0.4c0,0,0-0.1-0.1-0.1
			c0,0-0.1,0-0.1,0c-0.4,0.1-1.3,0.4-2.8,0.6c-0.1,0-0.1,0.1-0.1,0.2V31c0,0.1,0.1,0.1,0.1,0.2c0.8,0.1,1.1,0.2,1.1,1.2v1.8
			c-0.5-0.4-1.2-0.6-1.9-0.6c-2,0-4.1,1.6-4.1,4.4c0,2.1,1.4,4.3,3.7,4.3c0.9,0,1.8-0.5,2.4-1.3l0,1.1c0,0.1,0,0.1,0.1,0.1
			c0,0,0.1,0,0.1,0c0,0,0,0,0,0c0.8-0.2,1.6-0.4,2.5-0.5c0.1,0,0.1-0.1,0.1-0.2V41C77.3,41,77.3,40.9,77.2,40.9z M72.6,40.9
			c-1.5,0-2.1-1.8-2.1-3.2c0-1.8,0.9-3.1,2.1-3.1c0.7,0,1.3,0.4,1.8,1.2v3.7C74,40.2,73.5,40.9,72.6,40.9z"/>
		<path fill="#FFFFFF" d="M81.8,36.9c-1-0.3-1.9-0.6-1.9-1.3c0-1,1.1-1,1.4-1c1.1,0,1.8,0.5,2.2,1.8c0,0.1,0.1,0.1,0.1,0.1h0.5
			c0.1,0,0.2-0.1,0.2-0.2v-2.5c0-0.1-0.1-0.2-0.2-0.2h-0.5c-0.1,0-0.1,0-0.1,0.1C83.3,34,83.3,34,83.2,34c-0.1,0-0.2-0.1-0.4-0.1
			c-0.4-0.1-0.9-0.3-1.6-0.3c-1.4,0-2.8,0.8-2.8,2.5c0,1.8,1.5,2.3,2.8,2.7c1,0.3,1.9,0.6,1.9,1.4c0,0.8-0.7,1.2-1.4,1.2
			c-1.3,0-2.1-0.7-2.6-2.1c0-0.1-0.1-0.1-0.1-0.1h-0.5c-0.1,0-0.2,0.1-0.2,0.2v2.9c0,0.1,0.1,0.2,0.2,0.2h0.5c0.1,0,0.1,0,0.1-0.1
			c0.1-0.3,0.2-0.5,0.4-0.5c0.1,0,0.3,0.1,0.5,0.2c0.4,0.2,0.9,0.4,1.7,0.4c2.2,0,3-1.6,3-2.7C84.7,37.9,83.1,37.4,81.8,36.9z"/>
	</g>
</g>
</svg>
